<svg width="203" height="40" viewBox="0 0 203 40" fill="none" xmlns="http://www.w3.org/2000/svg">
<path fill-rule="evenodd" clip-rule="evenodd" d="M20.3435 0.00012207C20.7951 0.740424 20.92 2.18925 20.61 3.18567C20.3935 3.13145 20.0677 3.11837 19.8549 3.18567C19.6347 1.96678 19.9336 0.795573 20.3435 0.00012207Z" fill="#D5A234"/>
<path fill-rule="evenodd" clip-rule="evenodd" d="M18.4335 0.0675049C18.8999 1.06953 19.3348 2.10334 19.6772 3.23061C19.0683 3.46056 18.5751 4.38874 18.9887 5.15989C18.986 5.21691 18.9758 5.26645 18.9443 5.29449C19.295 5.51602 19.4921 5.89271 20.0326 5.92262C19.9798 6.1105 19.7438 6.30306 19.5884 6.46102C19.7364 6.58815 19.9483 6.65077 20.1214 6.75266C20.3703 6.68255 20.5535 6.54608 20.8099 6.48346C20.709 6.27875 20.535 6.14789 20.4545 5.92262C20.8737 5.85252 21.143 5.63099 21.3651 5.36179C21.4317 5.33188 21.5354 5.33935 21.6316 5.33935C21.6205 5.23093 21.6298 5.10193 21.4761 5.13745C21.6918 4.77665 21.6279 4.07 21.3873 3.79145C21.4428 3.66059 21.5742 3.60637 21.565 3.41008C21.6094 3.41008 21.5927 3.47084 21.6538 3.45495C22.3007 2.67258 23.0456 1.9893 23.8081 1.32378C23.8294 1.29854 23.9164 1.15739 23.9191 1.25648C23.5823 2.53051 22.8457 3.4026 21.8759 4.03822C21.8944 4.14665 21.9472 4.22049 21.987 4.30742C22.4173 4.0915 22.842 3.86997 23.3195 3.70172C23.3704 3.58114 23.4685 3.50823 23.475 3.34278C23.5573 3.37924 23.5536 3.50262 23.6082 3.56712C23.9349 3.42597 24.2625 3.28576 24.6076 3.16331C24.3772 3.52131 24.094 3.82603 23.7859 4.10552C24.0163 4.83273 23.9154 5.8628 23.7193 6.57319C23.6239 6.91717 23.6267 7.35182 23.3417 7.47053C23.0178 7.08729 22.9882 6.40681 22.9197 5.76559C22.7939 5.78054 22.7087 5.83663 22.5866 5.85532C22.6893 6.25538 23.0206 6.84239 22.7865 7.29106C22.5301 7.24806 22.3534 6.93119 22.2313 6.73022C22.0934 6.50402 21.974 6.24136 21.8759 5.98992H21.4095C21.5483 6.20397 21.775 6.46289 21.9647 6.73022C22.1378 6.97325 22.4135 7.27704 22.2757 7.60513C22.0286 7.607 21.8306 7.40697 21.6538 7.26863C21.4623 7.11907 21.2763 6.96391 21.1208 6.79752C20.9783 6.87791 20.8663 6.98821 20.7655 7.11159C21.0893 7.26863 21.4169 7.45183 21.7204 7.64999C22.0027 7.83413 22.3654 8.0323 22.4533 8.41273C22.2738 8.552 22.0045 8.44732 21.8093 8.3903C21.2069 8.2155 20.5915 7.86965 20.1436 7.53783C19.7207 7.78833 19.196 7.99865 18.589 8.1211C18.4113 8.15662 18.1781 8.25757 18.0115 8.1211C18.0661 7.7659 18.4131 7.60139 18.6778 7.44809C18.9536 7.28826 19.2756 7.14805 19.5662 7.02186C19.5023 6.89941 19.4153 6.80033 19.3219 6.70779C19.1673 6.83211 18.9758 6.94708 18.7888 7.06673C18.6232 7.17328 18.4354 7.3836 18.2114 7.29106C18.216 6.65264 18.7648 6.36942 19.0554 5.94506H18.6556C18.3715 6.30119 18.2142 6.78537 17.7672 6.97699C17.5303 6.63395 17.8385 6.14228 17.9227 5.83289C17.8801 5.75624 17.7487 5.76933 17.6784 5.72072C17.6664 6.01236 17.5063 6.36194 17.4341 6.64049C17.3841 6.83491 17.4211 7.16581 17.1232 7.13403C16.9085 6.75827 16.7771 6.08807 16.7456 5.51882C16.7354 5.33935 16.7956 5.1496 16.6124 5.11502C16.6151 5.06548 16.7068 5.10567 16.7456 5.09259C16.7697 4.75796 16.8122 4.44202 16.8789 4.15038C16.53 3.755 16.1312 3.41008 15.9017 2.89411C16.2903 3.09975 16.704 3.28015 17.0788 3.49981C17.1759 3.36615 17.2648 3.22407 17.3008 3.02871C17.4563 3.2007 17.5146 3.47084 17.5896 3.72415C17.8875 3.96905 18.2965 4.10178 18.589 4.35228C18.6621 4.30648 18.6741 4.19899 18.7222 4.12795C17.7765 3.38578 16.9705 2.50246 16.7234 1.05457C16.8113 1.03495 16.914 1.19572 17.0121 1.30134C17.6691 2.00706 18.4094 2.79129 18.9665 3.61198C19.0378 3.57179 19.0424 3.4643 19.0998 3.41008C18.6047 2.60061 18.1874 1.4079 18.4335 0.0675049ZM22.2535 4.93555C22.2794 5.07389 22.3395 5.17765 22.3867 5.29449H22.9197C22.9299 5.07296 23.0123 4.80563 22.9864 4.62148C22.7698 4.75422 22.5329 4.86638 22.2535 4.93555ZM17.745 5.18232C17.9051 5.18512 18.0569 5.19541 18.1892 5.22719C18.2253 5.12156 18.2762 5.03089 18.3225 4.93555C18.117 4.86638 17.9319 4.77665 17.745 4.68879V5.18232Z" fill="#D5A234"/>
<path fill-rule="evenodd" clip-rule="evenodd" d="M22.2535 0.157013C22.4515 1.66192 21.8565 2.74527 21.2541 3.58932C21.1301 3.45285 20.9579 3.36499 20.8099 3.25282C21.1884 2.11713 21.7482 1.16465 22.2535 0.157013Z" fill="#D5A234"/>
<path fill-rule="evenodd" clip-rule="evenodd" d="M15.3909 3.07341C15.4094 3.06967 15.4122 3.08182 15.4131 3.09584C15.8091 3.9829 16.2394 4.91949 16.5457 5.92245C16.6411 6.23558 16.8104 6.63471 16.6124 6.97682C16.3098 6.92167 16.1571 6.52909 16.0127 6.28138C15.5213 5.43639 15.1706 4.43624 15.3909 3.07341Z" fill="#D5A234"/>
<path fill-rule="evenodd" clip-rule="evenodd" d="M25.3849 3.47737C25.4034 3.47363 25.4062 3.48578 25.4071 3.4998C25.5441 4.87011 25.0879 5.95813 24.4965 6.75265C24.3383 6.96576 24.1893 7.23309 23.9413 7.29105C23.7239 6.96763 23.9358 6.5629 24.0524 6.25911C24.4234 5.2898 24.9491 4.36162 25.3849 3.47737Z" fill="#D5A234"/>
<path fill-rule="evenodd" clip-rule="evenodd" d="M16.1238 7.2684C15.7537 7.2712 15.4955 6.95994 15.2577 6.75243C14.9986 6.52716 14.7728 6.29909 14.5692 6.03456C14.1315 5.46625 13.8243 4.85868 13.6808 4.06042C13.6744 4.02023 13.7021 4.01462 13.7031 4.03799C14.398 4.74277 15.1115 5.49242 15.7241 6.32619C15.9119 6.58137 16.2201 6.88329 16.1238 7.2684Z" fill="#D5A234"/>
<path fill-rule="evenodd" clip-rule="evenodd" d="M27.0284 4.53172C27.0469 4.52798 27.0497 4.54013 27.0506 4.55415C26.7471 5.84968 25.9161 6.81525 24.8964 7.44806C24.7613 7.53219 24.5845 7.66118 24.4078 7.62753C24.2782 7.25271 24.628 6.96668 24.8297 6.73019C25.049 6.47408 25.2906 6.21983 25.5182 5.98989C26.0225 5.48047 26.5519 4.98413 27.0284 4.53172Z" fill="#D5A234"/>
<path fill-rule="evenodd" clip-rule="evenodd" d="M27.7168 6.48352C27.7418 6.48819 27.7289 6.50595 27.7168 6.50595C27.1033 7.47713 26.0928 8.16135 24.7408 8.43523C24.578 8.46794 24.3513 8.58011 24.1856 8.43523C24.1986 8.08377 24.5881 7.94076 24.8519 7.78466C25.693 7.28738 26.7915 6.87517 27.7168 6.48352Z" fill="#D5A234"/>
<path fill-rule="evenodd" clip-rule="evenodd" d="M13.3698 8.16578C12.9765 8.24711 12.6897 8.43592 12.4592 8.68175C11.7717 8.74999 10.9879 8.72101 10.2383 8.72662C10.8981 8.15176 12.2335 7.85452 13.3698 8.16578Z" fill="#D5A234"/>
<path fill-rule="evenodd" clip-rule="evenodd" d="M19.3663 8.30034C18.9971 8.45083 18.7121 8.68638 18.5224 9.01821C17.796 9.03036 17.0594 9.07616 16.4569 9.04064C16.3533 9.01821 16.5708 8.9724 16.568 8.90604C16.0748 8.96212 15.1244 8.99297 14.7246 8.77144C14.609 8.70694 14.5507 8.54804 14.4359 8.45737C14.1805 8.2564 13.8974 8.2293 13.592 8.12087C14.1093 8.17882 14.6377 8.04422 15.191 8.076C15.7638 8.10872 16.1941 8.2536 16.6124 8.45737C16.7383 8.51813 16.927 8.65273 17.0122 8.65927C17.1241 8.66768 17.4064 8.51252 17.634 8.45737C18.1439 8.33399 18.751 8.33492 19.3663 8.30034Z" fill="#D5A234"/>
<path fill-rule="evenodd" clip-rule="evenodd" d="M20.188 8.32287C20.2917 8.27052 20.4916 8.31539 20.6322 8.30043C20.7396 8.32754 20.5388 8.38923 20.5212 8.43503C21.5206 8.29763 22.4784 8.51729 23.0752 8.92857C23.7267 8.5472 24.8168 8.40793 25.7403 8.6145C25.4211 8.7706 25.1657 8.99119 25.0074 9.30994C24.4392 9.395 23.9173 9.1099 23.4972 9.26507C22.7282 9.14916 21.7566 9.395 21.0764 9.13047C20.8913 8.7491 20.6258 8.44905 20.188 8.32287Z" fill="#D5A234"/>
<path fill-rule="evenodd" clip-rule="evenodd" d="M13.7252 8.56957C14.236 8.47423 14.5812 8.75745 14.5247 9.265C14.496 9.52112 14.323 9.86416 14.0583 10.095C13.8307 10.2941 13.3393 10.5633 12.9479 10.5213C12.7591 10.5007 12.5731 10.368 12.5703 10.1848C12.5676 9.99689 12.8109 9.87258 12.9257 9.64637C13.1617 9.18275 13.1256 8.68174 13.7252 8.56957Z" fill="#75471C"/>
<path fill-rule="evenodd" clip-rule="evenodd" d="M29.7601 9.42231C28.9911 9.35407 28.2129 9.29519 27.4726 9.19798C27.2866 8.95214 27.071 8.73622 26.7619 8.61471C27.9945 8.40533 29.1475 8.78763 29.7601 9.42231Z" fill="#D5A234"/>
<path fill-rule="evenodd" clip-rule="evenodd" d="M19.9882 8.65941C20.499 8.56407 20.8442 8.84729 20.7877 9.35485C20.759 9.61096 20.586 9.95401 20.3213 10.1849C20.0937 10.384 19.6023 10.6532 19.2109 10.6111C19.0221 10.5906 18.8361 10.4578 18.8333 10.2746C18.8306 10.0867 19.0739 9.96242 19.1887 9.73622C19.4247 9.27259 19.3886 8.77158 19.9882 8.65941Z" fill="#75471C"/>
<path fill-rule="evenodd" clip-rule="evenodd" d="M14.769 8.86145C15.6647 9.00353 16.3421 9.3662 16.9455 9.80365C17.4082 9.57558 17.8699 9.34657 18.4557 9.24282C18.3863 9.39611 18.3641 9.69429 18.4113 9.89339C18.1318 10.0448 17.8579 10.2018 17.5451 10.3196C17.5794 10.3794 17.6765 10.644 17.7672 10.6561C17.8838 10.672 18.3104 10.171 18.4557 10.1626C18.5667 10.2748 18.5973 10.4682 18.7222 10.5664C18.4029 11.0197 18.0485 11.4273 17.6117 11.8451C17.5025 11.9498 17.286 12.1881 17.1898 12.204C17.1 12.219 16.9427 12.1264 16.8344 12.1143C16.7178 12.1012 16.5096 12.1564 16.4347 12.1367C16.3005 12.1021 16.1108 11.804 15.9905 11.6656C15.5852 11.1983 15.0993 10.6776 14.8356 10.1402C14.8578 10.0056 14.9365 9.92797 14.9244 9.75879C15.3659 9.94106 15.6684 10.2635 15.9905 10.5664C16.1025 10.4626 16.2191 10.3636 16.3236 10.2523C15.8535 9.9719 15.3473 9.72794 14.9467 9.37742C14.9069 9.1858 14.8365 9.02503 14.769 8.86145ZM16.9455 10.5888C16.7428 10.7131 16.4717 10.7683 16.2792 10.9029C16.5068 11.1225 16.6429 11.4329 16.8344 11.6881C17.0278 11.3749 17.2795 11.1207 17.5229 10.858C17.3128 10.786 17.1555 10.6608 16.9455 10.5888Z" fill="#D5A234"/>
<path fill-rule="evenodd" clip-rule="evenodd" d="M26.4732 8.88369C26.984 8.78834 27.3292 9.07157 27.2727 9.57912C27.244 9.83524 27.071 10.1783 26.8063 10.4092C26.5787 10.6083 26.0873 10.8775 25.6959 10.8354C25.5071 10.8148 25.3211 10.6821 25.3183 10.4989C25.3155 10.311 25.5589 10.1867 25.6737 9.96049C25.9096 9.49687 25.8735 8.99585 26.4732 8.88369Z" fill="#75471C"/>
<path fill-rule="evenodd" clip-rule="evenodd" d="M12.2816 8.90637C12.3298 9.05499 12.1132 9.31765 12.1706 9.62424C11.2841 10.0823 10.3411 10.4833 9.37225 10.8581C9.98763 9.84951 10.9944 9.23633 12.2816 8.90637Z" fill="#D5A234"/>
<path fill-rule="evenodd" clip-rule="evenodd" d="M21.0986 9.19772C21.862 9.36878 22.5052 9.66135 23.0308 10.0726C23.599 9.74921 24.194 9.4529 24.9852 9.35476C24.9343 9.53516 24.8603 9.69219 24.8741 9.93803C24.4762 10.1642 24.0691 10.3811 23.6304 10.5662C23.6841 10.5886 23.8155 10.9148 23.8969 10.9251C23.9589 10.9326 24.293 10.5933 24.3633 10.5437C24.5808 10.3914 24.7603 10.3054 24.9185 10.2521C24.9361 10.3988 24.9991 10.4998 25.0518 10.611C24.6243 11.3009 24.0478 11.8402 23.4527 12.3608C23.2899 12.1477 22.7078 12.415 22.5422 12.3833C22.4533 12.3664 22.21 12.0655 22.098 11.9346C21.7935 11.5794 21.6066 11.3504 21.3207 10.9475C21.1245 10.6727 20.8589 10.4119 21.0986 10.0726C21.5243 10.2558 21.8213 10.569 22.1424 10.8578C22.2275 10.7419 22.346 10.6596 22.4311 10.5437C22.0101 10.2736 21.5418 10.0511 21.1652 9.73613C21.1809 9.51833 21.1356 9.36223 21.0986 9.19772ZM23.0086 10.8354C22.8142 10.9382 22.5884 11.0092 22.3867 11.1046C22.582 11.4009 22.8272 11.6467 22.9642 12.0019C23.1853 11.7168 23.4065 11.4317 23.6304 11.1494C23.4231 11.0447 23.2159 10.9401 23.0086 10.8354Z" fill="#D5A234"/>
<path fill-rule="evenodd" clip-rule="evenodd" d="M27.5615 9.39987C28.8922 9.76815 29.8675 10.4954 30.4931 11.5759C29.5334 11.1768 28.535 10.6225 27.6503 10.0729C27.6707 9.79807 27.6161 9.59897 27.5615 9.39987Z" fill="#D5A234"/>
<path fill-rule="evenodd" clip-rule="evenodd" d="M12.4371 10.4093C12.0086 11.001 11.471 11.4824 10.9491 11.9797C10.7649 11.9488 10.5771 11.9217 10.3494 11.9348C10.7464 11.0496 11.4099 10.4336 12.1706 9.9158C12.2946 10.0448 12.3223 10.271 12.4371 10.4093Z" fill="#D5A234"/>
<path fill-rule="evenodd" clip-rule="evenodd" d="M27.5837 10.3644C28.3998 10.8635 28.9893 11.5917 29.4048 12.4956C29.2086 12.4254 28.9504 12.5442 28.7607 12.4956C28.6349 12.4628 28.485 12.2095 28.3832 12.0918C28.038 11.6898 27.6133 11.2206 27.3616 10.813C27.4338 10.6616 27.53 10.5345 27.5837 10.3644Z" fill="#D5A234"/>
<path fill-rule="evenodd" clip-rule="evenodd" d="M14.6802 10.3868C15.0614 10.8991 15.3529 11.502 15.5019 12.2488C15.6694 12.2441 15.7869 12.289 15.9461 12.2937C15.5676 12.5919 15.2474 12.9489 15.2798 13.6621C14.9189 13.8435 14.5867 14.0538 14.1916 14.2005C14.2554 14.323 14.3424 14.422 14.4359 14.5146C14.7218 14.3099 15.0078 14.1052 15.3242 13.9313C15.3964 14.0304 15.4205 14.1781 15.5019 14.2678C15.2002 14.823 14.732 15.21 14.3248 15.6587C14.1139 15.5503 13.9103 15.4344 13.5919 15.4344C13.7604 15.1782 13.9667 14.9605 14.1916 14.7614C14.0213 14.6492 13.8187 14.5697 13.6364 14.4697C13.405 14.5501 13.207 14.6641 12.9701 14.7389C13.0358 14.9586 13.2986 15.1689 13.3921 15.4344C13.1626 15.4867 12.9405 15.5465 12.7924 15.6811C12.351 15.2521 11.9772 14.7548 11.6153 14.2454C11.7042 14.0958 11.7995 13.9528 11.8596 13.7743C12.1548 13.9696 12.4149 14.2005 12.6592 14.4473C12.7822 14.3547 12.8701 14.2267 12.9923 14.1332C12.6314 13.9294 12.2761 13.7201 11.9263 13.5051C11.9485 12.6825 11.5802 12.2544 11.0157 12.0245C11.2331 11.9301 11.5783 11.9647 11.8818 11.9572C12.0715 11.4534 12.3168 11.0056 12.5925 10.5887C12.7415 10.7075 12.8877 10.829 13.1033 10.8804C12.9858 11.315 12.8035 11.6842 12.6147 12.0469C12.7684 12.1535 13.0071 12.174 13.17 12.2712C13.1727 11.7805 13.2172 11.3309 13.3254 10.9477C13.5956 11.0196 13.8807 10.9299 14.1027 10.8804C14.186 11.301 14.187 11.8852 14.1472 12.361C14.3054 12.3554 14.571 12.2656 14.7912 12.2488C14.5987 11.7852 14.4322 11.2954 14.2804 10.7906C14.4127 10.6551 14.5913 10.5663 14.6802 10.3868ZM12.1928 12.9218C12.6305 13.0854 13.0367 13.2807 13.3921 13.5275C13.3513 13.3294 13.2736 13.1686 13.2588 12.9442C13.2357 12.8928 13.1006 12.9545 13.0811 12.8994C13.1292 12.8583 13.2227 12.8629 13.2144 12.7648C12.8563 12.7797 12.2511 12.4937 12.1928 12.9218ZM14.0361 12.9218C13.9704 13.1471 13.8936 13.3611 13.814 13.5724C14.2138 13.378 14.6487 13.2191 15.1244 13.1013C15.1234 13.0125 15.0753 12.9714 15.0577 12.8994C14.7107 12.9003 14.3989 12.9368 14.0361 12.9218Z" fill="#D5A234"/>
<path fill-rule="evenodd" clip-rule="evenodd" d="M20.7876 10.6111C21.1837 11.1009 21.4539 11.7178 21.6538 12.4058C21.9101 12.3936 22.0998 12.4488 22.3201 12.4731C22.1008 12.6329 21.986 12.8984 21.7426 13.0339C21.7732 13.3443 21.6159 13.5957 21.6982 13.9986C21.7177 14.0948 21.812 14.2098 21.8093 14.3126C21.8009 14.594 21.378 14.98 21.2096 15.1651C20.9644 15.4352 20.7173 15.6596 20.4989 15.9054C20.7025 15.8867 20.9144 15.8764 21.143 15.883C21.3808 15.4203 21.6371 14.9763 21.9647 14.6043C22.11 14.6669 22.1646 14.8211 22.3201 14.8735C22.2248 15.2782 22.0693 15.6222 21.9203 15.9727C22.0054 16.0512 22.1739 16.0456 22.2757 16.1073C22.3321 15.7156 22.3895 15.3249 22.4977 14.9856C22.693 15.0501 22.8846 15.1184 23.164 15.0978C23.2427 15.3997 23.2741 15.7493 23.2751 16.1297C23.3621 16.1494 23.5138 16.0419 23.6526 16.04C23.5703 15.7119 23.4555 15.4165 23.3639 15.0978C23.5184 14.9997 23.7192 14.9482 23.8747 14.851C24.0774 15.1772 24.256 15.5278 24.4077 15.9054C24.6067 15.8989 24.789 15.9091 24.963 15.9278C24.7205 15.5521 24.3096 15.152 24.0524 14.7164C24.1366 14.5697 24.2569 14.4594 24.3189 14.2902C24.5965 14.4211 24.7834 14.6435 25.0074 14.8286C25.1175 14.7454 25.2063 14.6407 25.2961 14.537C25.0111 14.3538 24.6835 14.2135 24.4299 13.9986C24.5364 13.2358 24.206 12.7329 23.7415 12.4731C23.8497 12.3805 24.1181 12.4497 24.2967 12.4282C24.5465 11.858 24.8214 11.3122 25.185 10.8579C25.3359 10.9523 25.446 11.0878 25.607 11.1719C25.4636 11.6702 25.2517 12.0992 25.0518 12.5404C25.2221 12.6152 25.4303 12.6516 25.5848 12.7423C25.6172 12.2142 25.6672 11.7038 25.7847 11.2617C25.9929 11.3075 26.2742 11.3664 26.5176 11.3066C26.6101 11.6767 26.6129 12.1375 26.6064 12.6077C26.7795 12.5731 26.9442 12.5301 27.1172 12.4955C26.9877 12.088 26.8387 11.7001 26.7175 11.2841C26.8507 11.157 27.0756 11.1224 27.1839 10.97C27.5059 11.3851 27.7113 11.9179 27.8945 12.4731C28.1425 12.4619 28.336 12.5058 28.5386 12.5404C28.0176 12.7984 27.616 13.1788 27.628 13.9761C27.2653 14.178 26.8794 14.3566 26.4954 14.537C26.5139 14.6379 26.7119 14.7519 26.7619 14.8959C27.071 14.6846 27.3162 14.4089 27.6947 14.2678C27.715 14.4491 27.8187 14.5463 27.8723 14.694C27.566 15.1772 27.157 15.5567 26.7619 15.9503C26.9136 15.9839 27.17 15.9288 27.3837 15.9503C27.5836 15.5839 27.7807 15.2146 28.0278 14.8959C28.1796 14.9968 28.3313 15.0978 28.4942 15.1875C28.4081 15.4969 28.2888 15.7727 28.1611 16.04C28.2527 16.112 28.4118 16.1157 28.5164 16.1746C28.5821 15.8746 28.6043 15.5306 28.6941 15.2548C28.9199 15.2782 29.2382 15.309 29.4048 15.21C29.513 15.467 29.514 15.8325 29.5158 16.197C29.6528 16.1709 29.7638 16.1185 29.9156 16.1073C29.8147 15.7979 29.7 15.5025 29.6269 15.1651C29.7657 15.0436 29.9258 14.9436 30.071 14.8286C30.2941 15.209 30.5282 15.5782 30.6707 16.04C30.9067 16.026 31.0852 16.0699 31.2925 16.0849C30.9798 15.6381 30.505 15.1604 30.2043 14.6267C30.2478 14.4762 30.3431 14.3781 30.3598 14.2005C31.1075 14.6716 31.7219 15.2773 32.1365 16.0849C31.0843 15.9961 30.4856 16.5541 30.4708 17.5879C30.1941 17.7421 29.9174 17.8964 29.6046 18.0141C29.6555 18.1497 29.7943 18.1964 29.8489 18.3282C30.0868 18.1871 30.2672 17.988 30.5374 17.8795C30.5781 18.0702 30.6883 18.1908 30.7595 18.3506C30.6078 18.5338 30.4671 18.7283 30.2931 18.889C30.2644 18.919 30.2792 18.9563 30.3153 18.9788C30.3005 19.0461 30.2681 18.9573 30.2265 18.9788C29.9174 19.3246 29.5575 19.6191 29.2493 19.9658C29.2752 20.0892 29.3372 20.1762 29.3603 20.3023C28.8958 20.2164 28.5173 20.365 28.2499 20.5715C28.0963 20.6903 28.0167 20.866 27.8501 20.9529C27.8316 21.2483 27.6789 21.4081 27.7169 21.7605C27.294 21.9764 26.8961 22.2176 26.4287 22.3887C26.5037 22.5298 26.6268 22.6223 26.7175 22.7476C27.0589 22.5092 27.3541 22.2241 27.7613 22.0522C27.8039 22.1811 27.8566 22.2999 27.9168 22.4111C27.4235 23.1991 26.736 23.7907 26.0734 24.4077C26.1752 24.6488 26.2224 24.9451 26.2955 25.2153C26.1224 25.1358 25.9531 24.8591 25.7625 24.7217C25.6172 24.8152 25.4701 25.0246 25.3405 25.0582C25.3812 24.8451 25.4451 24.6554 25.5182 24.475C25.0027 23.7992 24.3753 23.2364 23.9413 22.4784C23.9867 22.3148 24.1125 22.2326 24.1634 22.0746C24.466 22.2475 24.7103 22.4793 24.963 22.7027C25.0472 22.6008 25.148 22.5158 25.2295 22.4111C24.9158 22.197 24.5641 22.0213 24.2523 21.8054C24.2902 21.6278 24.2809 21.3558 24.2523 21.1772C24.8704 21.3305 25.3803 21.5932 25.8291 21.9176C26.3251 21.6259 26.8479 21.3614 27.4948 21.2221C27.4605 21.1511 27.4282 21.08 27.4059 20.9978C26.9627 20.9838 26.7193 21.0352 26.2733 21.0202C26.2039 21.0632 26.4315 21.1118 26.3621 21.1548C26.2983 21.152 26.2168 21.167 26.1845 21.1324C26.0919 21.3904 25.9439 21.5923 25.8735 21.8727C25.6903 21.6839 25.657 21.3436 25.5404 21.0875C25.1351 21.0707 24.7677 21.0155 24.3855 20.9753C24.3059 20.9997 24.2985 21.0969 24.2523 21.1548C24.1329 20.7968 23.9395 20.5136 23.6526 20.3248C23.7202 20.2734 23.8821 20.3173 23.9858 20.3023C24.206 19.5153 24.5345 18.8376 24.9852 18.2833C25.1425 18.3562 25.2822 18.4469 25.4293 18.5301C25.2452 19.1966 24.95 19.7509 24.6742 20.3248C24.9204 20.4201 25.2285 20.4528 25.4516 20.5715C25.3812 19.8565 25.4571 19.118 25.6292 18.575C25.8495 18.6236 26.115 18.589 26.3177 18.5525C26.4343 19.1414 26.475 19.9257 26.3399 20.5267C26.5565 20.5211 26.8137 20.3622 27.1172 20.3696C26.9109 19.7331 26.6342 19.1676 26.4954 18.4628C26.5898 18.5161 26.7971 18.1899 26.8729 18.1936C26.9719 18.1983 27.1163 18.5245 27.1839 18.6423C27.4504 19.105 27.7317 19.7742 27.7835 20.3248C28.013 20.3248 28.211 20.3566 28.4054 20.3921C28.4701 20.2556 28.521 20.1051 28.583 19.9658C28.1037 19.3508 27.5438 18.8171 27.1394 18.1263C27.0941 18.1628 27.0839 18.2347 27.0506 18.2833C26.9655 17.9141 27.3504 17.6459 27.2949 17.0495C27.2292 16.341 26.7434 15.9091 26.0068 15.7932C26.1493 15.5633 26.3251 15.367 26.4954 15.1651C26.2955 15.038 26.0632 14.9436 25.8513 14.8286C25.632 14.8828 25.4719 14.9987 25.2517 15.0529C25.4053 15.309 25.6089 15.5147 25.7625 15.7708C25.372 15.8904 25.0296 16.0222 24.8075 16.3092C24.739 16.3971 24.7473 16.5354 24.6076 16.556C24.4568 17.0962 24.5114 17.7702 24.8297 18.0814C24.3355 18.8161 23.6758 19.3835 23.053 19.9883C22.9984 20.0145 23.0983 20.0733 23.0308 20.1004C22.8253 20.1023 22.5986 20.0827 22.4755 20.1677C22.4126 20.1453 22.482 20.0724 22.4755 20.0331C21.9333 19.3919 21.3327 18.8096 20.8987 18.059C20.845 18.087 20.8265 18.1506 20.8099 18.216C20.6988 17.8291 21.2096 17.2486 20.8987 16.713C20.8922 16.6317 20.9024 16.5672 20.9209 16.5111C20.9117 16.4606 20.8034 16.5111 20.7876 16.4662C20.5683 16.1045 20.2287 15.8643 19.7216 15.7932C19.878 15.51 20.0899 15.2829 20.2991 15.0529C20.1316 14.908 19.8799 14.8482 19.6994 14.7164C19.4718 14.7856 19.2941 14.9052 19.0553 14.9632C19.2108 15.2623 19.4588 15.4679 19.5884 15.7932C18.3854 15.7315 17.8496 17.2336 18.5223 18.1263C18.0087 18.7965 17.3915 19.362 16.79 19.9434C16.6336 19.9275 16.4069 19.8957 16.257 19.9434C15.7184 19.2611 15.0818 18.6778 14.6357 17.902C14.5821 17.93 14.5636 17.9936 14.5469 18.059C14.4275 17.8861 14.6172 17.7431 14.7024 17.6103C14.8097 17.444 14.9189 17.2654 14.9467 17.0046C15.0096 16.4214 14.7088 16.0204 14.4581 15.7259H14.88C15.1049 15.2801 15.3585 14.8632 15.6574 14.4921C15.7647 14.608 15.9137 14.6818 16.0349 14.7837C15.9544 15.1735 15.7943 15.4829 15.6574 15.8157C15.749 15.8876 15.9081 15.8914 16.0127 15.9503C16.0691 15.5661 16.1219 15.1782 16.2348 14.851C16.4032 14.9118 16.6919 14.9492 16.9011 14.8959C16.9797 15.2502 17.0214 15.6418 17.0121 16.0849C17.1565 16.0437 17.2906 15.9923 17.4341 15.9503C17.3092 15.5979 17.1759 15.2539 17.1009 14.851C17.2573 14.7921 17.398 14.7174 17.5229 14.6267C17.8264 14.9408 18.0087 15.3782 18.167 15.8381C18.3974 15.8222 18.5732 15.8615 18.7888 15.8605C18.4825 15.4296 18.018 14.9641 17.7228 14.4472C17.8033 14.3192 17.8986 14.2061 17.9449 14.0434C18.1152 14.1434 18.4076 14.3491 18.6112 14.537C18.6593 14.5818 18.7592 14.7379 18.7888 14.7389C18.9138 14.7445 18.973 14.4921 19.0998 14.4248C18.7805 14.2014 18.3918 14.0481 18.1004 13.7967C18.055 13.8032 18.0559 13.8565 18.0337 13.8864C18.1411 13.1928 17.8644 12.5441 17.3675 12.3161C17.5312 12.2422 17.8061 12.2805 18.0337 12.2712C18.2864 11.7337 18.5149 11.1719 18.8999 10.7681C19.0498 10.8411 19.1756 10.9373 19.3441 10.9925C19.2127 11.5103 18.9906 11.9366 18.7888 12.3834C18.9684 12.4563 19.1719 12.5049 19.3441 12.5853C19.3311 11.9889 19.4246 11.5 19.5439 11.0373C19.766 11.0962 20.0473 11.043 20.2324 10.9925C20.3277 11.4299 20.3842 12.0169 20.3213 12.5404C20.4684 12.5469 20.6997 12.4441 20.8987 12.4282C20.7368 11.9338 20.5221 11.4926 20.4323 10.9252C20.5285 10.7981 20.7108 10.7579 20.7876 10.6111ZM18.4779 12.9891C18.4566 13.0872 18.4011 13.1508 18.3669 13.2358C18.8046 13.3994 19.2053 13.6004 19.5662 13.8415C19.4912 13.6032 19.4264 13.3545 19.3885 13.0788C19.0877 13.0461 18.7805 13.0199 18.4779 12.9891ZM20.2546 13.0788C20.1769 13.2984 20.1279 13.549 20.0325 13.7518C20.4147 13.577 20.7914 13.3966 21.254 13.3031C21.2346 13.2106 21.1846 13.1489 21.1652 13.0564C20.882 13.0844 20.5674 13.0807 20.2546 13.0788ZM26.5176 13.1461C26.4954 13.3779 26.3705 13.6247 26.3621 13.7967C26.6832 13.605 27.0663 13.476 27.4726 13.3704C27.467 13.2639 27.4041 13.2153 27.3837 13.1237C27.1089 13.1452 26.8193 13.1517 26.5176 13.1461ZM24.7409 13.1461C24.7196 13.2442 24.6641 13.3078 24.6298 13.3929C25.0647 13.5592 25.4664 13.7593 25.8291 13.9986C25.756 13.7583 25.6866 13.5144 25.6514 13.2358C25.347 13.2068 25.0435 13.1769 24.7409 13.1461ZM21.4539 13.8415C21.1069 14.0967 20.6572 14.2481 20.2768 14.4697C20.4082 14.5463 20.449 14.7146 20.5878 14.7837C20.8922 14.5304 21.1994 14.2799 21.5872 14.1107C21.5751 13.9883 21.5381 13.8911 21.4539 13.8415ZM15.2576 16.6906C15.5389 16.7953 15.8137 16.9065 16.0571 17.0495C16.0488 16.8635 16.0173 16.7008 16.0127 16.5111C15.7258 16.4933 15.2668 16.3148 15.2576 16.6906ZM16.9677 16.5784C16.9658 16.8317 16.8344 17.0719 16.8566 17.2738C17.1111 17.0673 17.4979 16.9944 17.7894 16.8252C17.733 16.7401 17.7052 16.6261 17.6562 16.5335C17.3989 16.5335 17.1046 16.5167 16.9677 16.5784ZM21.5205 16.8476C21.8028 16.9514 22.0684 17.0719 22.3201 17.2065C22.3154 17.0177 22.2738 16.8644 22.2757 16.6681C21.986 16.6532 21.5298 16.4718 21.5205 16.8476ZM23.3417 16.7354H23.2306C23.2242 16.9383 23.127 17.1691 23.1418 17.3187C23.388 17.1486 23.6915 17.0364 24.008 16.9373C23.9987 16.7971 23.9089 16.7382 23.8969 16.6008H23.2529C23.2343 16.6943 23.313 16.6896 23.3417 16.7354ZM27.7613 16.9149C28.0565 17.013 28.3239 17.1392 28.583 17.2738C28.5358 17.1196 28.5506 16.9027 28.5164 16.7354C28.2295 16.7177 27.7705 16.5391 27.7613 16.9149ZM29.538 16.7579C29.563 16.7625 29.5723 16.7831 29.5824 16.8027H29.4714C29.4631 16.9887 29.4297 17.1495 29.3826 17.2963C29.675 17.1963 29.9406 17.0673 30.2487 16.9822C30.2422 16.8691 30.1775 16.8149 30.1599 16.713C29.8924 16.7149 29.7629 16.7167 29.538 16.7579ZM14.8578 17.4982C15.1817 17.6945 15.451 17.9459 15.724 18.1936C15.7888 18.0497 15.9303 17.9833 16.0127 17.8571C15.6296 17.6832 15.3103 17.4449 14.9467 17.2514C14.9365 17.3533 14.856 17.3841 14.8578 17.4982ZM21.1208 17.6552C21.428 17.8309 21.6538 18.0889 21.9425 18.2833C22.0166 18.1712 22.1322 18.1011 22.1868 17.9693C21.8361 17.8076 21.5474 17.5832 21.2096 17.4084C21.1994 17.5103 21.1189 17.5412 21.1208 17.6552ZM27.3615 17.7225C27.6151 17.8777 27.8483 18.0534 28.05 18.2609C28.1768 18.203 28.248 18.087 28.3387 17.9917C28.0408 17.8291 27.7622 17.6468 27.4726 17.4757C27.4457 17.5683 27.3717 17.6131 27.3615 17.7225ZM18.0115 17.4982C17.7663 17.6692 17.4369 17.7552 17.1898 17.9244C17.2842 18.0235 17.3721 18.1291 17.4563 18.2385C17.7071 18.0805 17.9208 17.8851 18.167 17.7225C18.1041 17.6589 18.1207 17.515 18.0115 17.4982ZM24.2523 17.5655C23.9913 17.7431 23.6498 17.8393 23.3861 18.0141C23.4981 18.1179 23.5851 18.2469 23.697 18.3506C23.8997 18.1515 24.1246 17.9749 24.3855 17.8347C24.355 17.7309 24.3392 17.6122 24.2523 17.5655ZM16.5457 18.1712C16.3745 18.2964 16.1043 18.3235 15.9461 18.4628C16.1959 18.7114 16.3653 19.0414 16.5679 19.3377C16.7382 19.0087 16.9834 18.7554 17.212 18.4852C16.9806 18.3899 16.7937 18.2497 16.5457 18.1712ZM22.631 18.3058C22.4987 18.4189 22.2599 18.4245 22.1424 18.5525C22.4071 18.7937 22.5857 19.1218 22.7865 19.4274C22.9567 19.1209 23.202 18.89 23.3861 18.5974C23.1363 18.5208 22.9771 18.3525 22.7198 18.2833C22.7245 18.4376 22.6967 18.317 22.631 18.3058ZM28.3831 18.5525C28.5432 18.832 28.7903 19.0236 28.9162 19.3377C29.1309 19.1059 29.3122 18.8395 29.538 18.6198C29.3409 18.5348 29.1827 18.4105 28.9606 18.3506C28.9569 18.3843 28.9689 18.4338 28.9384 18.4404C28.8338 18.2347 28.5664 18.5469 28.3831 18.5525ZM25.7625 22.6803C25.5959 22.7962 25.3535 22.8355 25.185 22.9495C25.4349 23.2131 25.6348 23.5271 25.8291 23.8468C26.0022 23.5365 26.2316 23.2813 26.451 23.0168C26.2067 22.9196 25.9947 22.7896 25.7625 22.6803Z" fill="#D5A234"/>
<path fill-rule="evenodd" clip-rule="evenodd" d="M9.9941 12.0245C9.75721 12.1666 9.53789 12.3265 9.37225 12.5405C8.60604 12.619 7.75376 12.6106 6.90704 12.6078C7.55111 12.0311 8.84293 11.746 9.9941 12.0245Z" fill="#D5A234"/>
<path fill-rule="evenodd" clip-rule="evenodd" d="M10.0829 12.3835C10.4725 12.2966 10.8149 12.5237 10.9713 12.8097C11.0666 12.9845 11.086 13.222 11.1934 13.4379C11.2628 13.5781 11.5432 13.8492 11.5487 13.9763C11.5561 14.1361 11.3932 14.3109 11.1712 14.3352C10.4531 14.4128 9.67112 13.6874 9.59431 13.1014C9.53787 12.6695 9.7433 12.4592 10.0829 12.3835Z" fill="#75471C"/>
<path fill-rule="evenodd" clip-rule="evenodd" d="M16.1682 12.5179C16.5578 12.43 16.9002 12.6581 17.0566 12.9441C17.1519 13.1189 17.1713 13.3563 17.2787 13.5723C17.3481 13.7125 17.6285 13.9835 17.634 14.1107C17.6414 14.2705 17.4786 14.4453 17.2565 14.4696C16.5384 14.5472 15.7564 13.8218 15.6796 13.2358C15.6232 12.8039 15.8286 12.5936 16.1682 12.5179Z" fill="#75471C"/>
<path fill-rule="evenodd" clip-rule="evenodd" d="M32.6473 13.3478C31.7849 13.3067 30.9677 13.2197 30.1821 13.101C30.0294 12.8739 29.8249 12.6991 29.5602 12.5851C30.7836 12.3 32.0939 12.7402 32.6473 13.3478Z" fill="#D5A234"/>
<path fill-rule="evenodd" clip-rule="evenodd" d="M22.6088 12.6527C22.9984 12.5648 23.3408 12.7929 23.4972 13.0789C23.5925 13.2537 23.6119 13.4911 23.7192 13.707C23.7886 13.8472 24.069 14.1183 24.0746 14.2454C24.082 14.4053 23.9191 14.5801 23.697 14.6044C22.9789 14.682 22.197 13.9566 22.1202 13.3705C22.0637 12.9387 22.2692 12.7284 22.6088 12.6527Z" fill="#75471C"/>
<path fill-rule="evenodd" clip-rule="evenodd" d="M9.21672 12.7423C9.30556 12.8666 9.10475 13.0751 9.15009 13.3031C8.20158 13.878 7.11149 14.3098 6.01862 14.7389C6.7071 13.692 7.75185 13.005 9.21672 12.7423Z" fill="#D5A234"/>
<path fill-rule="evenodd" clip-rule="evenodd" d="M28.5608 12.832C28.9504 12.7442 29.2928 12.9723 29.4492 13.2583C29.5445 13.4331 29.5639 13.6705 29.6713 13.8864C29.7407 14.0266 30.0211 14.2977 30.0266 14.4248C30.034 14.5847 29.8712 14.7594 29.6491 14.7838C28.931 14.8613 28.149 14.136 28.0722 13.5499C28.0158 13.1181 28.2212 12.9078 28.5608 12.832Z" fill="#75471C"/>
<path fill-rule="evenodd" clip-rule="evenodd" d="M30.2932 13.3032C31.7303 13.6462 32.7722 14.3884 33.4024 15.5465C32.3669 15.0296 31.3055 14.5389 30.4042 13.8865C30.4181 13.6406 30.344 13.4836 30.2932 13.3032Z" fill="#D5A234"/>
<path fill-rule="evenodd" clip-rule="evenodd" d="M9.15016 13.6173C9.22604 13.7127 9.23344 13.8772 9.30562 13.9762C9.00488 14.5698 8.48296 14.9399 8.08413 15.4344C8.2692 15.4045 8.49129 15.412 8.70598 15.412C8.91974 14.9848 9.16867 14.5932 9.43888 14.223C9.56751 14.3399 9.68873 14.4642 9.83864 14.5595C9.75443 14.9082 9.6147 15.2007 9.4833 15.5017C9.57028 15.5784 9.74333 15.5681 9.83864 15.6363C9.90434 15.3064 9.92563 14.9315 10.0385 14.6492C10.2162 14.7399 10.5688 14.7446 10.7714 14.739C10.8186 15.0951 10.8547 15.4625 10.838 15.8831C10.9491 15.8906 11.1369 15.7812 11.3044 15.7709C11.1989 15.3989 11.0379 15.083 10.9713 14.6717C11.1443 14.5997 11.3165 14.5268 11.4377 14.4025C11.7116 14.7614 11.8995 15.2073 12.0595 15.6812C12.2668 15.6812 12.4538 15.7017 12.637 15.7261C12.6592 15.7934 12.5111 15.9111 12.4371 16.0177C12.3547 16.1355 12.3029 16.2747 12.215 16.3542C12.1188 16.8449 12.1854 17.3871 12.4371 17.6553C11.9855 18.462 11.2943 19.0284 10.6604 19.6519C10.4161 19.6444 10.1875 19.6519 10.0163 19.7192C10.0339 19.6771 10.0533 19.6369 10.0607 19.5846C9.51476 18.9322 8.91141 18.3377 8.46168 17.588C8.41819 17.6123 8.38487 17.7628 8.35063 17.7226C8.43855 17.3749 8.68747 17.1253 8.63935 16.601C8.61992 16.3878 8.52275 16.242 8.48389 16.0401C8.1998 15.684 7.88424 15.3596 7.26239 15.3447C7.73063 14.6062 8.3784 14.0492 9.15016 13.6173ZM9.08353 16.3766C9.36762 16.4785 9.64709 16.5851 9.88306 16.7356C9.87566 16.5337 9.86733 16.3327 9.81643 16.1747C9.4981 16.1887 9.10019 16.0037 9.08353 16.3766ZM10.7936 16.3766C10.7344 16.6084 10.6928 16.858 10.616 17.0721C10.9583 16.9318 11.2554 16.7458 11.6598 16.6683C11.6441 16.5495 11.5895 16.4701 11.5487 16.3766H10.7936ZM8.79481 16.9375C8.75225 17.0141 8.69117 17.0721 8.68377 17.1842C8.81425 17.2497 8.96323 17.3674 9.15016 17.5207C9.26953 17.6189 9.49533 17.9058 9.57213 17.9021C9.64986 17.8984 9.83679 17.588 9.88306 17.5656C9.49533 17.3814 9.15571 17.1487 8.79481 16.9375ZM11.1046 17.6553C11.1508 17.7955 11.2526 17.8797 11.3489 17.9694C11.5617 17.7955 11.8143 17.6619 12.0151 17.4759C11.9901 17.3889 11.9541 17.3132 11.9041 17.2515C11.6653 17.4142 11.3877 17.5375 11.1046 17.6553ZM10.5715 17.9245C10.306 17.9853 10.1181 18.1246 9.86085 18.1937C10.033 18.476 10.2264 18.7368 10.3939 19.0238C10.5947 18.7181 10.838 18.4554 11.0823 18.1937C10.9149 18.1012 10.727 18.0292 10.5715 17.9245Z" fill="#D5A234"/>
<path fill-rule="evenodd" clip-rule="evenodd" d="M6.70718 15.4344C6.45733 15.5933 6.20285 15.7476 6.06312 16.0177C5.34132 16.0663 4.57233 16.0673 3.79779 16.0626C4.43445 15.5288 5.5486 15.2297 6.70718 15.4344Z" fill="#D5A234"/>
<path fill-rule="evenodd" clip-rule="evenodd" d="M7.44005 15.6812C7.95086 15.5859 8.29602 15.8691 8.23958 16.3766C8.21089 16.6328 8.03784 16.9758 7.77319 17.2067C7.54554 17.4058 7.05417 17.675 6.66273 17.6329C6.47396 17.6123 6.28796 17.4796 6.28518 17.2964C6.2824 17.1085 6.52578 16.9842 6.64052 16.758C6.8765 16.2944 6.84041 15.7934 7.44005 15.6812Z" fill="#75471C"/>
<path fill-rule="evenodd" clip-rule="evenodd" d="M13.8362 15.8606C14.347 15.7652 14.6922 16.0485 14.6358 16.556C14.6071 16.8121 14.434 17.1552 14.1694 17.3861C13.9417 17.5852 13.4503 17.8544 13.0589 17.8123C12.8701 17.7917 12.6841 17.659 12.6814 17.4758C12.6786 17.2879 12.922 17.1636 13.0367 16.9374C13.2727 16.4738 13.2366 15.9728 13.8362 15.8606Z" fill="#75471C"/>
<path fill-rule="evenodd" clip-rule="evenodd" d="M35.5789 16.9372C34.6998 16.8755 33.8336 16.8007 33.0249 16.668C32.8527 16.468 32.6677 16.281 32.403 16.1745C33.6625 15.8791 35.0181 16.3091 35.5789 16.9372Z" fill="#D5A234"/>
<path fill-rule="evenodd" clip-rule="evenodd" d="M19.7883 16.2196C20.2991 16.1243 20.6442 16.4075 20.5878 16.9151C20.5591 17.1712 20.386 17.5142 20.1214 17.7451C19.8937 17.9442 19.4024 18.2134 19.0109 18.1713C18.8222 18.1508 18.6362 18.018 18.6334 17.8348C18.6306 17.6469 18.874 17.5226 18.9887 17.2964C19.2247 16.8328 19.1886 16.3318 19.7883 16.2196Z" fill="#75471C"/>
<path fill-rule="evenodd" clip-rule="evenodd" d="M26.0956 16.2196C26.6064 16.1243 26.9516 16.4075 26.8952 16.9151C26.8665 17.1712 26.6934 17.5142 26.4288 17.7451C26.2011 17.9442 25.7097 18.2134 25.3183 18.1713C25.1295 18.1508 24.9435 18.018 24.9408 17.8348C24.938 17.6469 25.1814 17.5226 25.2961 17.2964C25.5321 16.8328 25.496 16.3318 26.0956 16.2196Z" fill="#75471C"/>
<path fill-rule="evenodd" clip-rule="evenodd" d="M5.95203 16.242C5.89003 16.4186 5.84746 16.6149 5.86319 16.8701C5.2034 17.2505 4.48438 17.5712 3.73112 17.8572C3.9856 18.0039 4.27894 18.1114 4.50844 18.2834C4.94614 17.8731 5.35516 17.4337 5.92982 17.1617C5.97331 17.3197 6.03994 17.4543 6.1297 17.5655C5.86319 17.9843 5.52358 18.3292 5.17471 18.6648C4.24841 18.7162 3.76073 19.2107 3.73112 20.1678C2.6947 20.624 1.28442 20.7025 0 20.9081C0.118448 20.738 0.313703 20.5847 0.510808 20.4595C1.24186 19.994 2.43929 19.6378 3.66449 19.8089C3.74038 19.7659 3.74315 19.649 3.77554 19.5621C2.63085 19.4098 1.58239 19.1602 0.533017 18.9116C1.47227 18.418 3.13055 18.5788 4.01984 19.0013C4.07906 18.9788 4.07999 18.8975 4.13088 18.8667C3.84032 18.5694 3.42297 18.4003 3.10927 18.1264C3.04727 18.146 2.99915 18.1797 2.9316 18.1937C2.92142 18.1236 2.99175 18.1348 2.99822 18.0815C2.84554 17.9217 2.64288 17.8123 2.46521 17.6777C2.69562 17.6394 3.02969 17.6908 3.24252 17.745C3.91527 17.0113 4.75736 16.4485 5.95203 16.242Z" fill="#D5A234"/>
<path fill-rule="evenodd" clip-rule="evenodd" d="M32.0255 16.4885C32.5363 16.3932 32.8815 16.6764 32.825 17.1839C32.7963 17.4401 32.6233 17.7831 32.3586 18.014C32.131 18.2131 31.6396 18.4823 31.2482 18.4402C31.0594 18.4197 30.8734 18.2869 30.8706 18.1037C30.8679 17.9158 31.1112 17.7915 31.226 17.5653C31.4619 17.1017 31.4259 16.6007 32.0255 16.4885Z" fill="#75471C"/>
<path fill-rule="evenodd" clip-rule="evenodd" d="M9.10572 19.7863C9.33059 19.7826 9.52307 19.8134 9.70536 19.8536C9.32503 20.1424 9.02151 20.5089 9.0613 21.2221C8.71984 21.3707 8.42001 21.5614 8.0841 21.7156C8.09798 21.7988 8.13685 21.8567 8.15073 21.9399C8.10909 22.0259 8.01007 21.8044 7.90643 21.8053C7.66121 21.8866 7.453 22.0054 7.21795 22.097C7.27255 22.3634 7.391 22.5653 7.41783 22.8597C7.92031 22.3353 8.41539 21.8035 9.12793 21.4913C9.17327 21.6025 9.21491 21.7175 9.28339 21.8053C8.81608 22.5671 8.16924 23.1476 7.52888 23.7346C7.52147 23.8841 7.49464 24.0141 7.50667 24.1833C7.41135 24.1449 7.41043 24.0122 7.3512 23.9365C7.09487 24.1188 6.91443 24.3777 6.64051 24.5422C6.75156 24.1459 6.88481 23.772 7.06249 23.443C6.91165 23.0719 6.69696 22.7653 6.55168 22.3886C6.39159 22.4213 6.27407 22.497 6.12971 22.5456C6.28054 23.5346 6.1038 24.5375 5.75215 25.2601C5.5532 24.0963 5.31722 22.769 5.41902 21.4464C5.54024 21.4034 5.65684 21.3576 5.77436 21.3118C5.89558 21.653 6.03254 21.9782 6.08529 22.3886C6.20096 22.2961 6.28517 22.1717 6.37401 22.0521C6.35642 21.8371 5.98442 21.4305 6.01866 21.1772C6.04642 20.9725 6.32681 20.9426 6.3518 20.7061C6.58499 20.9416 6.76266 21.2333 6.92923 21.5361C7.06341 21.4548 7.20314 21.3791 7.30678 21.2669C7.24293 21.1828 7.18834 21.251 7.17353 21.3342C7.04213 20.9276 6.65439 20.7818 6.44063 20.4593C6.53409 20.2985 6.51281 19.9817 6.48505 19.7639C6.59425 19.7957 6.65069 19.8807 6.75156 19.9209C6.73305 19.332 6.76266 18.602 6.92923 18.1262C7.15965 18.159 7.43541 18.158 7.63992 18.1038C7.78058 18.6497 7.77503 19.4162 7.66213 19.9882C7.87127 19.9667 8.17294 19.8461 8.43945 19.8087C8.23309 19.2171 7.97676 18.6759 7.8398 18.0141C7.99249 17.9365 8.14518 17.8589 8.23957 17.7224C8.66802 18.2693 8.97246 18.9413 9.10572 19.7863ZM7.52888 20.4818C7.42708 20.7201 7.70377 20.8612 7.79539 21.0426C8.07763 20.8715 8.43575 20.7771 8.79479 20.6837C8.79757 20.5836 8.74019 20.5444 8.72816 20.4593C8.30434 20.4425 7.949 20.4948 7.52888 20.4818Z" fill="#D5A234"/>
<path fill-rule="evenodd" clip-rule="evenodd" d="M6.28518 17.7674C6.41566 17.8749 6.54892 17.9795 6.72937 18.0366C6.62942 18.4965 6.41844 18.8442 6.26297 19.248C6.10103 19.0526 5.91596 18.8806 5.66333 18.7769C5.83915 18.4086 6.04551 18.0712 6.28518 17.7674Z" fill="#D5A234"/>
<path fill-rule="evenodd" clip-rule="evenodd" d="M12.9701 18.104C12.8267 18.7817 12.5297 19.3042 12.2817 19.8762C12.5037 19.9286 12.7258 19.9809 12.9257 20.0557C12.8693 19.378 13.0007 18.7162 13.17 18.1937C13.3366 18.247 13.6429 18.2367 13.7919 18.2386C13.9214 18.8667 13.9603 19.6435 13.8363 20.3025C14.0454 20.281 14.3471 20.1604 14.6136 20.123C14.3776 19.4939 14.113 18.8938 13.9695 18.1713C14.1259 18.1274 14.2592 18.0601 14.3693 17.9694C14.8135 18.5377 15.1355 19.2294 15.2799 20.1006C15.44 20.1034 15.5917 20.1146 15.7241 20.1454C15.3363 20.4212 15.0217 20.8848 15.1244 21.5812C14.8061 21.7532 14.4878 21.9242 14.1472 22.0747C14.1972 22.2037 14.3027 22.2766 14.3693 22.3888C14.6506 22.2093 14.8847 21.9822 15.2133 21.8504C15.2466 21.9962 15.3419 22.0794 15.3909 22.2093C14.944 22.9468 14.2851 23.4703 13.703 24.0713C13.753 24.29 13.8095 24.5022 13.8585 24.7219C13.7475 24.7415 13.5679 24.4489 13.4365 24.3405C13.3366 24.4087 13.2144 24.5087 13.1034 24.6097C13.0062 24.6976 12.9035 24.8677 12.8147 24.834C12.9035 24.5499 12.9951 24.2685 13.1034 24.004C12.563 23.3459 11.9578 22.7533 11.5043 22.0074C11.5682 21.8625 11.67 21.755 11.7264 21.6036C12.0679 21.7831 12.3233 22.0476 12.5926 22.299C12.7369 22.2355 12.7999 22.0897 12.9257 22.0074C12.5676 21.7709 12.1743 21.57 11.8153 21.3344C11.9189 20.6053 11.5978 20.1202 11.1712 19.8538C11.2462 19.8024 11.4155 19.8463 11.5265 19.8314C11.8023 19.0929 12.1456 18.4227 12.6148 17.8797C12.7231 17.9647 12.8369 18.0442 12.9701 18.104ZM11.9707 20.5044C11.9383 20.5764 11.8884 20.6296 11.8597 20.7063C12.3538 20.8128 12.7869 21.1007 13.17 21.2447C13.084 21.0624 13.0331 20.8446 12.9923 20.6165C12.6601 20.5707 12.3048 20.5483 11.9707 20.5044ZM13.703 20.796C13.6475 21.04 13.4689 21.2755 13.4587 21.4914C13.5652 21.6074 13.6855 21.4784 13.7919 21.4241C14.1583 21.2372 14.5618 21.0961 14.969 20.9979C14.9782 20.8914 14.8931 20.8801 14.9023 20.7736C14.4841 20.7624 14.1278 20.8138 13.703 20.796ZM13.5476 22.3439C13.3255 22.3514 13.145 22.5869 12.9035 22.6131C13.0756 22.8954 13.2783 23.1468 13.4365 23.4432C13.6216 23.1141 13.9048 22.8842 14.125 22.5907C13.8927 22.5542 13.7697 22.3355 13.5476 22.3439Z" fill="#D5A234"/>
<path fill-rule="evenodd" clip-rule="evenodd" d="M25.6719 34.614C25.0787 34.3972 24.5207 34.2383 23.9636 34.0317C23.4565 33.8438 22.7542 33.6382 22.3646 33.3138C21.8399 32.8783 21.6955 31.6033 21.5873 30.7116C21.4068 29.2338 21.4105 27.8887 21.343 26.3819C21.3208 25.8875 21.2569 25.293 21.3208 24.9686C21.3513 24.8144 21.4957 24.6359 21.5873 24.4527C21.8528 23.9199 22.099 23.3282 22.2535 22.7701C22.1147 22.6935 22.0111 22.5813 21.876 22.5009C21.6835 22.7328 21.5234 22.9973 21.343 23.2412C21.3337 23.116 21.181 23.1356 21.1653 23.0169C21.3698 22.7973 21.5539 22.557 21.7205 22.299C21.6733 22.1822 21.603 22.0887 21.5651 21.9625C21.1829 22.1149 20.8969 22.3645 20.5879 22.5907C20.4768 22.4935 20.3371 22.4252 20.2547 22.299C20.6906 22.1037 21.1301 21.9121 21.4984 21.6485C21.4429 20.9418 21.7779 20.6296 22.0981 20.3025C21.8963 20.3043 21.7511 20.2492 21.5428 20.2576C21.3957 19.3892 21.0718 18.6994 20.6323 18.1264C20.5508 18.2909 20.3389 18.3237 20.2547 18.4854C20.4213 19.1322 20.66 19.7061 20.8766 20.3025C20.5721 20.295 20.3158 20.4539 20.0993 20.4595C20.202 19.88 20.1899 19.0855 20.077 18.5302C19.8753 18.5714 19.6005 18.6396 19.3664 18.5751C19.21 19.0948 19.1369 19.7501 19.1887 20.4146C18.9823 20.3081 18.714 20.266 18.478 20.1903C18.7056 19.6351 18.9897 19.1369 19.1665 18.5302C18.9786 18.4732 18.8509 18.3554 18.6779 18.2835C18.2716 18.8078 17.9866 19.4547 17.7451 20.1454C17.6091 20.1576 17.424 20.1202 17.3231 20.1679C17.6155 20.4202 17.9552 20.9325 17.8784 21.5587C18.2411 21.8279 18.6436 22.057 19.0554 22.2766C18.9499 22.3869 18.8648 22.5178 18.7223 22.5907C18.4465 22.3009 18.1541 22.028 17.7673 21.8504C17.7395 21.9868 17.647 22.0579 17.6118 22.1869C17.7571 22.5112 17.9829 22.7543 18.1671 23.0393C18.0893 23.1253 17.9764 23.1758 17.9672 23.331C17.8191 22.973 17.6322 22.6524 17.412 22.3663C17.3305 22.5084 17.1121 22.5122 17.0344 22.658C17.1741 23.3927 17.4851 24.0909 17.7451 24.7219C17.8376 24.9471 17.9792 25.1958 18.0116 25.3949C18.0486 25.6239 18.0246 25.9501 18.0116 26.2473C17.9404 27.8317 17.9292 29.2039 17.7451 30.734C17.6368 31.6295 17.4555 32.9381 16.9456 33.3363C16.5236 33.6653 15.8851 33.8401 15.3687 34.0317C15.1142 34.1261 14.8376 34.2224 14.5248 34.3233C14.249 34.4131 13.9325 34.5916 13.6586 34.5925C13.6383 34.5925 13.6179 34.5907 13.5976 34.5897C13.5809 34.6412 13.5633 34.6916 13.5439 34.7421C13.6614 34.8318 13.7197 34.9786 13.7188 35.1263C13.7808 35.0954 13.8493 35.0777 13.9196 35.0777C14.1139 35.0777 14.2703 35.1964 14.3416 35.3628C14.5461 35.3544 14.7497 35.3385 14.9532 35.3114C15.0865 35.2936 15.2077 35.3618 15.2928 35.4637C15.402 35.4413 15.5103 35.4123 15.6177 35.3712C16.084 35.1908 16.457 34.8692 16.9641 34.7898C17.5526 34.6972 18.106 34.9141 18.664 35.0627C19.2211 35.2113 19.7837 35.2057 20.3528 35.1338C21.3439 35.0085 23.5 34.0177 24.095 35.2469C24.1617 35.2562 24.2283 35.2674 24.294 35.2824C24.368 35.1889 24.4828 35.1253 24.6382 35.1253H24.9741C25.0269 35.0889 25.0806 35.0524 25.1352 35.0169C25.1592 34.8057 25.3064 34.6112 25.5784 34.6112C25.6117 34.6112 25.6423 34.615 25.6719 34.6197C25.6719 34.6187 25.6719 34.6169 25.6719 34.6159V34.614ZM18.056 21.0203C18.0699 20.9372 18.118 20.8885 18.1449 20.8184C18.5159 20.8624 18.8824 20.911 19.2775 20.9306C19.3488 21.2176 19.4524 21.4718 19.544 21.7382C19.1174 21.4288 18.6103 21.2007 18.056 21.0203ZM19.6329 21.8055C19.6634 21.5513 19.8873 21.3017 19.9438 20.9979C20.2566 20.9428 20.7183 20.9362 21.1431 20.9306C21.1764 21.0016 21.2171 21.0652 21.2319 21.1549C20.6147 21.2867 20.1298 21.5522 19.6329 21.8055Z" fill="#D5A234"/>
<path fill-rule="evenodd" clip-rule="evenodd" d="M33.6024 19.6519C33.3506 19.7416 33.1508 19.8837 33.0027 20.0781C32.8047 19.6724 32.6677 19.2051 32.5363 18.7321C32.6326 18.5825 32.8278 18.533 32.9139 18.3732C33.2294 18.7125 33.4256 19.1724 33.6024 19.6519Z" fill="#D5A234"/>
<path fill-rule="evenodd" clip-rule="evenodd" d="M30.915 18.5076C31.0622 18.6132 31.1982 18.7301 31.4036 18.7768C31.2417 19.3685 30.9659 19.8452 30.7374 20.3696C30.9632 20.4406 31.2408 20.4593 31.4481 20.549C31.4083 19.9368 31.4703 19.3442 31.6035 18.8441C31.8321 18.889 32.1578 18.8749 32.3142 18.7768C32.5067 19.3208 32.4558 20.1667 32.3364 20.7509C32.4687 20.75 32.5955 20.549 32.7584 20.5042C32.6973 20.7117 32.6492 21.0687 32.7362 21.2893C32.5289 21.5286 32.2587 21.7044 32.0477 21.9399C32.1319 22.0343 32.255 22.0895 32.3364 22.1867C32.5095 21.9876 32.6288 21.7333 32.8028 21.5361C32.9046 21.7324 33.0314 21.9035 33.1804 22.0521C33.048 22.4119 32.7704 22.7858 33.1359 23.0616C33.2442 22.798 33.2997 22.4792 33.4025 22.2091C33.5662 22.2381 33.6616 22.3362 33.8466 22.3437C33.9049 23.6477 33.6708 24.8404 33.5135 26.0004C33.1471 25.3545 32.9703 24.3263 33.1137 23.3083C33.0092 23.2195 32.8509 23.185 32.7362 23.1064C32.5243 23.4233 32.3882 23.8168 32.181 24.1384C32.3466 24.4646 32.4484 24.8553 32.5363 25.2601C32.4817 25.289 32.3096 25.1058 32.2254 25.0133C32.119 24.8955 32.0301 24.745 31.9144 24.6768C31.8191 24.7226 31.8441 24.8899 31.7368 24.9236C31.8312 24.444 31.561 24.2786 31.337 24.0262C30.9215 23.5598 30.5162 23.0878 30.2044 22.568C30.2627 22.4176 30.3755 22.3222 30.4042 22.1418C30.6726 22.2745 30.8697 22.4792 31.0927 22.6578C31.1381 22.554 31.1686 22.4353 31.2038 22.3213C30.9798 22.1586 30.729 22.0231 30.4931 21.8726C30.507 21.6202 30.4792 21.4081 30.4264 21.222C30.8438 21.3164 31.2047 21.4679 31.5369 21.6483C31.7294 21.5464 31.5859 21.3015 31.5369 21.1323C31.1695 21.1145 30.8382 21.0603 30.4931 21.0201C30.4292 21.0155 30.3718 21.0173 30.382 21.0874C30.209 20.8061 30.0156 20.5453 29.6935 20.4144C29.7833 20.378 29.8999 20.3686 30.0267 20.3696C30.2127 19.6377 30.5347 19.0432 30.915 18.5076ZM31.4258 22.4334C31.35 22.5363 31.2334 22.598 31.1371 22.6802C31.3759 22.955 31.6183 23.2261 31.8478 23.5102C31.8802 23.2214 31.9894 23.0102 32.0699 22.7699C31.8469 22.6662 31.647 22.5391 31.4258 22.4334Z" fill="#D5A234"/>
<path fill-rule="evenodd" clip-rule="evenodd" d="M4.55288 19.0908C4.94247 19.003 5.28486 19.231 5.44125 19.5171C5.53656 19.6919 5.55599 19.9293 5.66334 20.1452C5.73274 20.2854 6.01313 20.5565 6.01868 20.6836C6.02608 20.8434 5.86322 21.0182 5.64113 21.0425C4.92303 21.1201 4.14109 20.3948 4.06428 19.8087C4.00784 19.3769 4.21327 19.1665 4.55288 19.0908Z" fill="#75471C"/>
<path fill-rule="evenodd" clip-rule="evenodd" d="M33.6245 19.9658C34.0141 19.8789 34.3565 20.106 34.5129 20.3921C34.6082 20.5669 34.6276 20.8043 34.735 21.0202C34.8044 21.1604 35.0848 21.4315 35.0903 21.5586C35.0977 21.7184 34.9349 21.8932 34.7128 21.9175C33.9947 21.9951 33.2127 21.2698 33.1359 20.6837C33.0795 20.2519 33.2849 20.0416 33.6245 19.9658Z" fill="#75471C"/>
<path fill-rule="evenodd" clip-rule="evenodd" d="M9.86087 20.0557C10.2505 19.9678 10.5928 20.1959 10.7492 20.4819C10.8445 20.6567 10.864 20.8941 10.9713 21.11C11.0407 21.2503 11.3211 21.5213 11.3267 21.6485C11.3341 21.8083 11.1712 21.9831 10.9491 22.0074C10.231 22.085 9.44907 21.3596 9.37227 20.7735C9.31582 20.3417 9.52125 20.1314 9.86087 20.0557Z" fill="#75471C"/>
<path fill-rule="evenodd" clip-rule="evenodd" d="M16.0349 20.3698C16.4245 20.2819 16.7669 20.51 16.9233 20.796C17.0186 20.9708 17.038 21.2082 17.1454 21.4242C17.2148 21.5644 17.4952 21.8354 17.5007 21.9626C17.5081 22.1224 17.3453 22.2972 17.1232 22.3215C16.4051 22.3991 15.6231 21.6737 15.5463 21.0877C15.4899 20.6558 15.6953 20.4455 16.0349 20.3698Z" fill="#75471C"/>
<path fill-rule="evenodd" clip-rule="evenodd" d="M22.4312 20.5042C22.8208 20.4164 23.1632 20.6444 23.3195 20.9305C23.4149 21.1053 23.4343 21.3427 23.5416 21.5586C23.611 21.6988 23.8914 21.9699 23.897 22.097C23.9044 22.2568 23.7415 22.4316 23.5194 22.4559C22.8013 22.5335 22.0194 21.8082 21.9426 21.2221C21.8861 20.7903 22.0916 20.5799 22.4312 20.5042Z" fill="#75471C"/>
<path fill-rule="evenodd" clip-rule="evenodd" d="M39.2657 21.6033C37.9692 21.4921 36.5182 21.3425 35.4902 20.8854C35.4744 20.9537 35.5133 20.9668 35.5124 21.02C35.4291 20.9247 35.4744 20.6994 35.4235 20.5714C37.054 20.3125 38.4143 20.8565 39.2657 21.6033Z" fill="#D5A234"/>
<path fill-rule="evenodd" clip-rule="evenodd" d="M28.5165 20.7285C28.9061 20.6407 29.2485 20.8687 29.4049 21.1548C29.5002 21.3296 29.5196 21.567 29.627 21.7829C29.6964 21.9231 29.9768 22.1942 29.9823 22.3213C29.9897 22.4811 29.8268 22.6559 29.6048 22.6802C28.8867 22.7578 28.1047 22.0325 28.0279 21.4464C27.9715 21.0146 28.1769 20.8042 28.5165 20.7285Z" fill="#75471C"/>
<path fill-rule="evenodd" clip-rule="evenodd" d="M4.53062 21.3343C4.10032 22.5364 3.2425 23.4272 2.19867 23.9366C2.42816 22.5682 3.17124 21.7185 4.04202 20.9978C4.21044 21.1044 4.32796 21.2624 4.53062 21.3343Z" fill="#D5A234"/>
<path fill-rule="evenodd" clip-rule="evenodd" d="M5.15254 21.4688C5.18493 23.1167 4.59732 24.258 3.79779 24.9909C4.06615 23.7514 4.2503 22.4269 4.75278 21.424C4.87401 21.4511 4.99523 21.4782 5.15254 21.4688Z" fill="#D5A234"/>
<path fill-rule="evenodd" clip-rule="evenodd" d="M37.0447 24.632C36.9484 24.6554 36.8189 24.5507 36.6893 24.475C35.8361 23.9759 35.1393 23.1767 34.7571 22.1868C34.9394 22.0868 35.0968 21.9615 35.2013 21.783C36.1211 22.4242 36.7819 23.3272 37.0447 24.632Z" fill="#D5A234"/>
<path fill-rule="evenodd" clip-rule="evenodd" d="M9.81645 22.3214C9.43149 23.5403 8.87441 24.5853 8.28402 25.5967C8.15354 23.9721 8.75874 22.9093 9.43889 22.0298C9.54624 22.1457 9.69522 22.2195 9.81645 22.3214Z" fill="#D5A234"/>
<path fill-rule="evenodd" clip-rule="evenodd" d="M12.1483 25.6862C11.6477 24.6814 11.197 23.6261 10.8824 22.4334C10.9768 22.2969 11.1915 22.282 11.3044 22.1642C11.9271 22.9746 12.375 24.2318 12.1483 25.6862Z" fill="#D5A234"/>
<path fill-rule="evenodd" clip-rule="evenodd" d="M35.4456 25.7088C35.3494 25.7396 35.268 25.5686 35.1791 25.462C34.573 24.732 34.0724 23.7328 34.0909 22.3662C34.2806 22.3709 34.4277 22.3326 34.5573 22.2765C34.9941 23.2785 35.1967 24.517 35.4456 25.7088Z" fill="#D5A234"/>
<path fill-rule="evenodd" clip-rule="evenodd" d="M10.6826 22.4561C10.9546 23.6516 10.6696 24.9537 10.2162 25.7538C9.73681 24.9939 9.65446 23.3562 10.0163 22.3888C10.1773 22.4682 10.5141 22.4542 10.6826 22.4561Z" fill="#D5A234"/>
<path fill-rule="evenodd" clip-rule="evenodd" d="M15.9905 22.6356C15.6166 23.8657 15.0133 24.8639 14.4803 25.9333C14.286 24.3648 14.9198 23.2543 15.5685 22.3888C15.6972 22.4832 15.8378 22.5655 15.9905 22.6356Z" fill="#D5A234"/>
<path fill-rule="evenodd" clip-rule="evenodd" d="M24.5632 26.1576C24.0811 25.1116 23.5999 24.0647 23.2973 22.8374C23.4787 22.8113 23.5925 22.7168 23.7193 22.6355C24.3661 23.416 24.8186 24.7489 24.5632 26.1576Z" fill="#D5A234"/>
<path fill-rule="evenodd" clip-rule="evenodd" d="M28.472 22.9496C28.0797 24.1236 27.5457 25.1546 26.9618 26.1351C26.8424 24.5573 27.4051 23.4917 28.0723 22.6355C28.187 22.7589 28.3397 22.844 28.472 22.9496Z" fill="#D5A234"/>
<path fill-rule="evenodd" clip-rule="evenodd" d="M16.3903 26.0676C15.8925 25.2731 15.8407 23.7261 16.1682 22.7026C16.3681 22.7203 16.6467 22.7559 16.8123 22.6801C17.151 23.8345 16.8567 25.2198 16.3903 26.0676Z" fill="#D5A234"/>
<path fill-rule="evenodd" clip-rule="evenodd" d="M30.8262 26.2247C30.3246 25.2432 29.9091 24.1749 29.5602 23.0392C29.6963 22.9223 29.8925 22.8662 30.0266 22.7475C30.6105 23.5654 31.0594 24.7964 30.8262 26.2247Z" fill="#D5A234"/>
<path fill-rule="evenodd" clip-rule="evenodd" d="M23.0974 22.9047C23.3926 24.0843 23.0974 25.4406 22.6532 26.2248C22.1507 25.4369 22.1035 23.8787 22.4311 22.8598C22.5699 22.872 22.8485 22.9299 23.0974 22.9047Z" fill="#D5A234"/>
<path fill-rule="evenodd" clip-rule="evenodd" d="M28.6496 23.0167C28.8486 23.0775 29.1419 23.1121 29.3825 23.0616C29.5195 23.7439 29.4834 24.531 29.3159 25.1928C29.2113 25.6078 29.0401 25.9518 28.9161 26.292C28.4081 25.5741 28.3628 24.0244 28.6496 23.0167Z" fill="#D5A234"/>
<path fill-rule="evenodd" clip-rule="evenodd" d="M12.8591 5.92242C12.8637 5.89718 12.8813 5.91027 12.8813 5.92242C13.8094 6.35706 14.7552 6.81882 15.613 7.38059C15.8712 7.54884 16.2247 7.73952 16.2793 8.09846C16.1321 8.23867 15.9017 8.14052 15.7462 8.09846C14.4729 7.75635 13.4421 6.95155 12.8591 5.92242Z" fill="#D5A234"/>
<path fill-rule="evenodd" clip-rule="evenodd" d="M33.0915 18.1262C33.1359 17.9991 33.1942 17.8859 33.2247 17.7448C33.8059 18.085 34.2612 18.5524 34.6905 19.0459C34.9034 18.917 35.1079 18.7795 35.3568 18.687C34.6757 18.2383 33.8623 17.9233 33.247 17.4083C33.2534 17.1849 33.1683 17.054 33.1359 16.8699C34.3435 17.1232 35.2319 17.699 35.912 18.4851C36.1915 18.4458 36.4543 18.3898 36.7782 18.3954C36.6005 18.5674 36.3738 18.6898 36.1786 18.844C36.2045 18.9525 36.2905 19.0001 36.3118 19.1132C36.2008 19.0843 36.1221 19.0207 36.0231 18.9786C35.6751 19.1656 35.3762 19.4021 35.0459 19.6068C35.0487 19.6862 35.1097 19.7068 35.1125 19.7862C36.0111 19.3292 37.6925 19.1525 38.7104 19.6292C37.6703 19.9302 36.5274 20.1442 35.3346 20.3246C35.3309 20.3433 35.3429 20.3461 35.3568 20.3471C35.1282 20.0022 34.7738 19.59 34.1575 19.5619C33.7707 19.1151 33.3747 18.6777 33.0915 18.1262Z" fill="#D5A234"/>
<path fill-rule="evenodd" clip-rule="evenodd" d="M3.75328 20.437C3.83657 20.5323 3.85692 20.6912 3.93095 20.7959C3.0574 21.6334 1.82572 22.1083 0.732849 22.7252C1.28067 21.5886 2.38465 20.8193 3.75328 20.437Z" fill="#D5A234"/>
<path fill-rule="evenodd" clip-rule="evenodd" d="M35.3347 21.581C35.368 21.4427 35.4466 21.3501 35.4457 21.1772C36.8717 21.5315 37.8868 22.3008 38.5328 23.443C37.4519 22.927 36.2462 22.3428 35.3347 21.581Z" fill="#D5A234"/>
<path fill-rule="evenodd" clip-rule="evenodd" d="M8.27288 34.1399V34.1633C9.39351 34.1184 9.71462 35.1625 10.8066 34.9008C11.4608 34.7437 11.7828 34.1193 12.6555 34.1399H12.9525C14.0491 34.1268 14.3933 35.1671 15.4862 34.9008C16.1275 34.7447 16.4532 34.1203 17.3129 34.1399H17.6099C18.4798 34.109 18.8037 34.7409 19.4357 34.9008C20.4869 35.1662 20.8321 34.1006 21.924 34.1399H22.2211C23.0715 34.1137 23.4037 34.7418 24.0247 34.9008C25.1333 35.1849 25.4793 34.1221 26.5815 34.1399H26.8785C27.7373 34.1109 28.0741 34.7409 28.7052 34.9008C29.8101 35.1802 30.159 34.1231 31.262 34.1399H31.4221V35.1541C30.841 35.1372 30.4662 35.5569 30.0979 35.7308C29.5325 35.9981 28.658 36.0299 28.0658 35.7542C27.6623 35.5663 27.1302 34.9802 26.3538 35.2008C25.9365 35.3195 25.6663 35.6354 25.3498 35.7775C24.8436 36.0037 24.0885 36.0374 23.5009 35.8009C22.9336 35.5719 22.4682 34.926 21.5835 35.2475C21.268 35.3625 21.0218 35.6214 20.7386 35.7551C20.1954 36.0112 19.4153 36.0458 18.7981 35.7551C18.3465 35.542 17.8746 34.9774 17.0862 35.2017C16.7188 35.3064 16.3894 35.6588 16.0359 35.8018C15.4714 36.029 14.7061 36.0112 14.187 35.7785C13.7215 35.57 13.256 34.9671 12.4297 35.2017C12.066 35.3055 11.7514 35.6242 11.471 35.7551C10.9037 36.0196 9.96354 35.9972 9.41664 35.7317C9.06223 35.5597 8.72261 35.1419 8.11556 35.155V34.6016C8.11556 34.4399 8.05912 34.21 8.18404 34.1408H8.27565L8.27288 34.1399Z" fill="#75471C"/>
<path fill-rule="evenodd" clip-rule="evenodd" d="M8.11273 36.1692C9.30369 36.0159 9.6942 37.2563 10.875 36.9067C11.2387 36.7992 11.6208 36.4384 11.9706 36.3076C12.5388 36.0954 13.2273 36.1197 13.7288 36.3309C14.0749 36.4768 14.3488 36.8263 14.7792 36.9301C15.6472 37.1404 16.034 36.5431 16.5596 36.3309C17.1204 36.1047 17.77 36.101 18.3178 36.3076C18.6741 36.4422 18.985 36.788 19.4134 36.9067C20.1685 37.117 20.6405 36.573 21.0569 36.3767C21.5686 36.1356 22.4589 36.1075 22.9974 36.3309C23.3611 36.4814 23.6221 36.8273 24.0477 36.9301C24.9296 37.1432 25.3359 36.5328 25.8282 36.3309C26.3445 36.1188 27.0395 36.1019 27.5864 36.3076C27.9149 36.4319 28.2693 36.7936 28.6367 36.9067C29.736 37.2479 30.2487 36.0561 31.4221 36.1692V37.1834C30.7854 37.1647 30.4782 37.5881 30.0294 37.7826C29.4973 38.0144 28.7468 38.0639 28.1342 37.8059C27.6289 37.5928 27.2597 37.0142 26.3991 37.2068C25.9346 37.3105 25.6718 37.6545 25.3035 37.8059C24.7982 38.0134 24.1976 38.0639 23.5684 37.8293C23.0724 37.6442 22.5681 37.0226 21.7417 37.2068C21.3197 37.3012 21.0069 37.6667 20.6692 37.8059C20.0658 38.0555 19.3672 38.0284 18.8203 37.7826C18.3446 37.5685 17.9264 36.9955 17.0852 37.2292C16.6392 37.3535 16.3699 37.6854 15.9895 37.8284C15.4001 38.0508 14.7421 38.0032 14.2545 37.805C13.7538 37.6022 13.3022 37.0208 12.474 37.2058C12.065 37.2974 11.7578 37.6554 11.4015 37.805C10.8 38.0583 10.0283 38.0256 9.48414 37.7816C9.04921 37.5872 8.78085 37.1675 8.11458 37.1825V36.1683L8.11273 36.1692Z" fill="#75471C"/>
<path fill-rule="evenodd" clip-rule="evenodd" d="M8.11275 38.1759C9.03998 38.0927 9.42216 38.7554 10.0986 38.9367C10.9315 39.1592 11.3951 38.5526 11.9475 38.3376C12.5046 38.1207 13.1838 38.1132 13.7511 38.3609C14.0231 38.4796 14.3119 38.8124 14.7329 38.9377C15.5445 39.1788 16.0386 38.5881 16.4902 38.3843C17.0371 38.1375 17.7469 38.0899 18.3622 38.3385C18.7009 38.475 19.0285 38.8283 19.4347 38.9377C20.2324 39.1526 20.6849 38.5385 21.193 38.3385C21.8019 38.0983 22.4885 38.1179 23.065 38.3843C23.3657 38.5236 23.6387 38.8311 24.0468 38.9377C24.826 39.1405 25.3044 38.5899 25.7588 38.3843C26.2927 38.1431 27.0608 38.1086 27.6308 38.3385C28.1712 38.5563 28.633 39.1723 29.4566 38.9377C30.0932 38.7563 30.5152 38.0843 31.4202 38.1768V39.191C30.4847 39.2601 30.2034 39.9911 29.2058 39.9976H28.9088C28.0583 40.0266 27.7243 39.3947 27.1052 39.2368C25.9984 38.9535 25.6487 40.0135 24.5484 39.9976H24.2513C23.3981 40.0425 23.0622 39.3891 22.4478 39.2368C21.3318 38.9601 20.994 40.0023 19.891 39.9976H19.6402C18.7879 40.0238 18.4603 39.3947 17.8366 39.2368C16.7289 38.9564 16.3856 40.0182 15.2798 39.9976H14.9828C13.8927 40.0023 13.5484 38.9909 12.4713 39.2368C11.8115 39.3873 11.4895 40.0145 10.6224 39.9976H10.3253C9.32777 39.9911 9.04646 39.2601 8.1109 39.191V38.1768L8.11275 38.1759Z" fill="#75471C"/>
<path fill-rule="evenodd" clip-rule="evenodd" d="M90.8671 3.00012H90.9846C90.8573 6.35817 90.8622 9.84839 90.8671 13.3386C92.1668 12.5872 93.2853 11.5103 95.2727 11.4589C98.1315 11.3854 100.114 13.3019 100.324 16.0407C100.476 17.9963 100.324 20.1575 100.324 22.2673C100.324 22.8963 100.197 23.8166 100.383 24.2645C100.687 24.9939 102.319 25.033 102.674 25.6743C102.63 25.8652 102.569 26.039 102.498 26.203C100.841 26.5187 98.8045 26.1907 97.2112 26.0855C97.3923 23.5449 97.6909 19.8785 97.5049 17.098C97.4045 15.5977 96.8318 14.3543 95.8601 13.8085C94.4063 12.991 91.851 13.5026 90.8671 14.6309C90.8769 17.9106 90.8328 21.2467 90.9258 24.4407C91.6381 24.8837 92.5853 25.0918 93.2755 25.5568C93.2877 25.8432 93.0968 25.9264 93.0993 26.203C90.8182 26.2862 88.3633 26.1516 85.9916 26.2617C86.0552 25.0722 87.2643 25.0281 87.9888 24.4995C88.1014 18.3341 88.0573 11.875 87.9888 5.70223C87.5017 5.26901 86.4419 5.09523 86.1091 4.70362C86.1017 3.77844 87.3279 3.76621 88.1063 3.58753C89.0559 3.3697 90.0472 3.14453 90.8671 3.00012Z" fill="#D5A234"/>
<path fill-rule="evenodd" clip-rule="evenodd" d="M51.5104 26.2029V26.0267C51.6744 25.8602 51.6083 25.4588 51.8041 25.3218C52.5898 25.0501 53.2947 24.6977 54.0951 24.4407C54.4108 18.6669 54.2174 12.384 54.2713 6.34833C53.3902 6.07421 52.2765 6.0326 51.5692 5.5847C51.552 4.80148 52.2496 4.86511 52.8027 4.82106C57.0028 4.4833 62.429 3.89833 65.3734 5.70218C67.0524 6.73015 67.936 9.29029 66.9007 11.4588C66.4968 12.3057 65.7087 13.0302 64.9035 13.5148C64.0101 14.0508 62.9577 14.2246 61.9664 14.6309C64.5633 14.9784 66.8982 15.6025 68.0755 17.4504C69.3874 19.5113 68.7021 22.605 67.0769 24.0295C63.9195 26.7977 57.3405 26.3987 51.5104 26.2029V26.2029ZM57.2083 5.93714V14.2197C59.2594 14.134 61.3031 13.9872 62.73 12.8686C63.9661 11.8994 64.6514 9.62561 63.7874 7.87561C62.8426 5.95673 60.2335 5.71686 57.2671 5.76092C57.1986 5.77071 57.2035 5.85393 57.2083 5.93714ZM57.2083 15.5707C57.2646 18.7036 57.0811 22.0812 57.3258 25.0281C59.536 24.984 61.7314 24.9645 63.3174 23.9707C64.923 22.9648 65.9608 20.5539 65.0797 18.2141C64.157 15.7665 60.7377 15.4386 57.2671 15.3945C57.1986 15.4043 57.2035 15.4875 57.2083 15.5707Z" fill="#D5A234"/>
<path fill-rule="evenodd" clip-rule="evenodd" d="M107.315 8.81559C106.556 8.34076 105.981 7.68237 105.611 6.81838C106.088 6.06454 106.695 4.97782 107.608 4.70369C107.89 4.61803 108.475 5.3058 108.666 5.52608C108.876 5.76838 109.378 6.22363 109.371 6.64216C109.358 7.48167 107.892 8.41174 107.315 8.81559Z" fill="#D5A234"/>
<path fill-rule="evenodd" clip-rule="evenodd" d="M161.827 6.52446C161.694 7.04335 161.408 7.4423 161.004 7.87552C160.733 8.16678 160.143 8.82517 159.771 8.81538C159.107 8.7958 158.361 7.33216 158.067 6.81817C158.486 6.17936 159.33 4.67656 160.123 4.70348C160.816 4.72796 161.428 6.07167 161.827 6.52446Z" fill="#D5A234"/>
<path fill-rule="evenodd" clip-rule="evenodd" d="M135.041 4.76248H141.796C141.757 5.70234 141.084 6.00828 140.621 6.52472C142.621 11.8653 144.801 17.0296 146.848 22.3261C148.921 17.2132 150.803 11.9093 152.663 6.58346C152.35 6.19186 151.65 5.87367 151.488 5.52612C151.5 5.20549 151.684 5.05619 151.723 4.76248H157.362C157.286 4.99989 157.201 5.22752 157.186 5.52612C156.307 6.03766 155.069 6.25549 154.484 7.05339C154.068 7.62122 153.723 8.69326 153.368 9.52053C151.564 13.7328 149.907 17.9352 148.199 22.2674C147.893 23.0433 147.648 23.9538 147.2 24.852C146.911 25.4296 146.086 26.9055 145.555 26.7905C145.149 26.7024 144.664 24.8031 144.498 24.3821C142.557 19.4503 140.623 14.5968 138.624 9.63801C138.291 8.81318 138.029 7.8929 137.625 7.22961C137.055 6.29465 135.851 5.93486 134.688 5.58486C134.744 5.24954 134.857 4.97052 135.041 4.76248Z" fill="#D5A234"/>
<path fill-rule="evenodd" clip-rule="evenodd" d="M182.621 7.17059C182.949 7.37129 182.797 7.87304 182.797 8.22794C182.797 9.38319 182.697 10.6828 182.739 11.8699H187.732C187.536 12.3007 187.293 12.6849 187.085 13.1035C185.622 13.2063 184.239 13.3898 182.739 13.4559C182.883 16.0968 182.406 20.1304 182.68 22.7958C182.917 25.1234 185.935 24.7881 187.555 23.7944C187.722 24.1346 187.531 24.5776 187.555 24.9692C186.016 27.1157 181.471 27.2283 180.271 24.7343C179.652 23.4468 179.86 21.3273 179.86 19.3301C179.86 17.2961 179.86 15.2451 179.86 13.5147C179.202 13.3311 178.48 13.2112 177.746 13.1035C177.716 12.7119 178.083 12.2321 178.274 11.8699H179.919C180.156 10.5605 180.445 9.30241 180.8 8.11045C181.295 7.68458 181.872 7.34192 182.621 7.17059Z" fill="#D5A234"/>
<path fill-rule="evenodd" clip-rule="evenodd" d="M175.102 11.4001C175.513 11.5567 175.185 13.1476 175.043 13.8672C174.862 14.7924 174.752 15.6661 174.162 15.8057C173.572 15.1424 173.311 14.1511 172.929 13.2798C171.34 12.0168 167.691 13.0987 168.699 15.6882C169.093 16.7015 170.907 17.3109 171.989 17.8029C173.213 18.3609 174.627 18.8578 175.396 19.8001C176.776 21.4889 176.064 24.1812 174.632 25.3217C172.41 27.0938 167.865 26.9616 165.645 25.2043C165.674 24.4945 165.838 23.721 165.997 23.0308C166.144 22.392 166.178 21.5917 166.82 21.3861C167.537 22.4312 167.887 23.8434 168.406 25.0868C170.254 25.755 172.691 25.2973 173.281 23.7945C174.086 21.741 171.808 20.9015 170.462 20.27C168.425 19.313 165.838 18.4343 166.056 15.3945C166.279 12.2738 170.352 10.3207 173.34 12.2224C173.91 11.9703 174.544 11.4686 175.102 11.4001Z" fill="#D5A234"/>
<path fill-rule="evenodd" clip-rule="evenodd" d="M84.8755 25.5568C84.4521 26.9617 81.6986 26.7904 80.5874 25.968C80.2203 25.6963 79.9094 25.1994 79.765 24.7932C78.6538 25.4418 77.7286 26.4404 76.1818 26.6141C73.7465 26.8858 71.8202 25.2362 71.6 23.2659C71.2622 20.248 73.7 19.5358 75.8881 18.8015C77.1045 18.3928 78.343 18.0061 79.6475 17.7442C79.8262 14.8903 78.8496 12.8026 76.0643 13.1036C75.4573 13.1697 75.0314 13.4047 74.4783 13.6323C74.1626 14.2785 74.5762 16.6575 73.8909 16.9806C73.4234 17.2008 72.8556 16.1924 72.5986 15.8645C72.1654 15.3113 71.8814 14.8708 71.6 14.3372C72.3416 13.5858 73.2863 13.0571 74.2433 12.575C75.1832 12.1026 76.3164 11.5788 77.4741 11.4589C80.6486 11.1309 82.3961 13.6005 82.4084 16.5106C82.4157 18.1138 82.4255 20.3337 82.3496 22.1498C82.3301 22.5904 82.1979 23.1411 82.2909 23.5596C82.5283 24.6194 83.8916 25.0893 84.8755 25.5568ZM74.537 21.3862C73.8566 23.496 75.7192 24.9694 77.5916 24.6757C78.321 24.5606 79.3171 23.961 79.53 23.2071C79.6793 22.6736 79.5643 21.8977 79.5888 21.0337C79.6108 20.2725 79.7797 19.1197 79.53 18.8603C78.2377 19.3914 74.9678 20.0498 74.537 21.3862Z" fill="#D5A234"/>
<path fill-rule="evenodd" clip-rule="evenodd" d="M108.842 11.459H108.959C108.955 15.8303 108.952 20.1968 109.077 24.4409C109.799 24.8153 110.612 25.0993 111.368 25.4395C111.339 25.7625 111.187 25.9632 111.133 26.2618C108.896 26.1639 106.265 26.1664 104.025 26.2618C104.108 25.0332 105.403 25.016 106.14 24.4409C106.169 20.9653 106.228 17.5192 106.199 13.9849C105.668 13.6153 104.968 13.4146 104.436 13.045C104.39 12.1517 105.523 12.1664 106.257 11.9877C107.131 11.7748 108.056 11.5496 108.842 11.459Z" fill="#D5A234"/>
<path fill-rule="evenodd" clip-rule="evenodd" d="M126.523 25.5568C126.078 27.0596 123.15 26.7317 122.118 25.8505C121.794 25.574 121.54 25.1187 121.413 24.7344C120.277 25.5372 119.359 26.4575 117.829 26.6142C115.416 26.8638 113.434 25.3267 113.248 23.0897C113.008 20.2089 115.318 19.597 117.418 18.8603C118.715 18.4051 119.961 18.0306 121.295 17.7442C121.508 14.8732 120.519 12.8222 117.771 13.1037C117.142 13.1673 116.708 13.4145 116.126 13.6323C115.874 14.3152 116.226 16.7432 115.48 16.9806C115.047 17.1176 114.503 16.2023 114.246 15.8645C113.823 15.3089 113.546 14.9026 113.306 14.3372C114.014 13.5418 114.98 13.0596 115.95 12.575C116.89 12.1051 118.011 11.569 119.18 11.4589C122.144 11.1799 123.863 13.3141 124.056 15.982C124.183 17.7246 123.997 19.8026 123.997 21.7386C123.997 22.3677 123.88 23.1019 123.997 23.6184C124.237 24.661 125.571 25.0795 126.523 25.5568ZM116.243 21.2687C115.783 22.375 116.319 23.6673 117.066 24.2058C118.551 25.2778 120.629 24.4701 121.236 23.2659C121.209 21.8072 121.41 20.2677 121.236 18.8603C119.954 19.367 116.757 20.0302 116.243 21.2687Z" fill="#D5A234"/>
<path fill-rule="evenodd" clip-rule="evenodd" d="M161.298 11.459C161.538 15.5831 161.376 20.1062 161.474 24.3821C162.164 24.8276 163.048 25.0797 163.824 25.4395C163.77 25.7381 163.66 25.9804 163.589 26.2618C161.352 26.1639 158.721 26.1664 156.481 26.2618C156.562 25.0307 157.857 25.0136 158.596 24.4409C158.606 20.9457 158.691 17.5265 158.655 13.9849C158.123 13.6153 157.419 13.4195 156.892 13.045C156.846 12.137 157.844 12.1859 158.948 11.9289C159.908 11.7062 160.676 11.5227 161.298 11.459Z" fill="#D5A234"/>
<path fill-rule="evenodd" clip-rule="evenodd" d="M202.652 25.5568V25.6155H202.593C202.571 25.9215 202.395 26.1222 202.182 26.2617C200.616 27.2848 197.757 26.0732 197.424 24.7344C196.364 25.6523 195.366 26.4648 193.899 26.6141C190.872 26.925 188.331 24.1323 189.67 21.1512C189.844 20.762 190.049 20.4903 190.434 20.2113C192.304 18.848 194.888 18.5225 197.424 17.7442C197.429 15.9869 197.284 14.4155 196.249 13.6323C195.25 12.876 193.283 12.9543 192.196 13.691C192.022 14.5379 192.267 16.7431 191.609 16.9806C191.202 17.1274 190.551 16.1753 190.316 15.8645C189.883 15.2942 189.658 14.8218 189.376 14.2785C190.38 13.4487 191.486 12.7805 192.783 12.2225C194.161 11.6302 195.772 11.1701 197.306 11.6938C201.171 13.0131 199.991 18.8015 200.067 23.6771C200.704 24.5288 201.504 25.2166 202.652 25.5568ZM192.313 21.3862C191.631 23.4935 193.498 24.9694 195.368 24.6757C196.097 24.5606 197.094 23.961 197.306 23.2071C197.453 22.6834 197.355 21.8855 197.365 21.0337C197.373 20.2432 197.554 19.1222 197.306 18.8603C196.004 19.3914 192.749 20.0474 192.313 21.3862Z" fill="#D5A234"/>
<path fill-rule="evenodd" clip-rule="evenodd" d="M88.6839 37H88.3314C87.7636 36.8825 87.1713 36.7895 86.8629 36.4126C87.044 36.065 87.0293 35.5217 87.3916 35.3552C87.4797 35.6147 87.514 36.2902 87.744 36.5888C88.8283 36.8874 89.7951 36.4787 89.7412 35.5315C89.6654 34.1731 87.1419 34.4766 87.0391 32.8294C86.9706 31.7304 88.0304 30.7783 89.5063 31.3608C89.7608 31.5028 89.9958 31.0133 90.2699 31.1846C90.1059 31.728 90.1818 32.2322 89.8587 32.5357C89.6091 32.0633 89.6947 31.7598 89.2126 31.5958C88.5126 31.3584 87.6266 31.7671 87.744 32.6531C87.9031 33.8622 90.5905 33.686 90.5049 35.4727C90.4633 36.3245 89.8391 36.8458 88.6839 37Z" fill="#D5A234"/>
<path fill-rule="evenodd" clip-rule="evenodd" d="M56.0825 36.9999H55.9063C54.3888 36.6768 53.963 35.2621 53.1455 34.239C55.0325 34.2268 55.1255 31.0499 52.7343 31.5369V36.3537C52.9105 36.6083 53.5199 36.4296 53.5567 36.8237C52.9276 36.9191 51.8948 36.924 51.2657 36.8237C51.3343 36.481 51.8923 36.6278 51.9706 36.295C52.0685 34.8656 52.0171 33.2869 52.0294 31.7719C51.9755 31.4929 51.3074 31.8282 51.3245 31.4782C52.864 30.9397 55.5686 30.9764 55.4364 32.7705C55.3752 33.61 54.707 33.845 54.0853 34.239C54.7364 35.174 55.4609 36.0355 56.0825 36.9999Z" fill="#D5A234"/>
<path fill-rule="evenodd" clip-rule="evenodd" d="M73 31.1844C73.3011 31.5172 72.9731 32.205 72.8825 32.5354C72.6108 32.3763 72.6084 31.948 72.4713 31.6543H70.7678C70.6332 32.2442 70.7458 33.0812 70.7091 33.769C71.3846 33.9281 72.185 33.72 72.8825 33.7102C72.7406 34.5987 71.6147 34.1606 70.7678 34.1802C70.6528 34.8239 70.692 35.8225 70.7678 36.4711C71.3724 36.454 71.9329 36.4809 72.4713 36.5298C72.8874 36.3193 72.9339 35.7393 73.3525 35.5312C73.5458 35.776 73.2301 36.498 73.1762 36.8823C71.8643 36.8431 70.3958 36.9606 69.1818 36.8235C69.265 36.5347 69.6297 36.5274 69.9455 36.4711C70.0605 35.0001 69.9797 33.3333 70.0042 31.7718C69.8647 31.5956 69.2406 31.598 69.2993 31.4193C70.2881 31.0963 71.999 31.4952 73 31.1844Z" fill="#D5A234"/>
<path fill-rule="evenodd" clip-rule="evenodd" d="M107.305 37H106.483C104.566 36.7748 103.423 34.7213 104.192 32.8881C104.782 31.4808 107.026 30.4602 108.773 31.7133C110.717 33.106 109.899 36.929 107.305 37ZM105.778 36.2951C107.679 37.7857 109.302 35.5095 108.95 33.4168C108.754 32.2493 107.697 31.3094 106.483 31.5371C104.476 31.9164 104.424 35.2329 105.778 36.2951Z" fill="#D5A234"/>
<path fill-rule="evenodd" clip-rule="evenodd" d="M128.099 37H127.923C126.411 36.672 125.955 35.2867 125.162 34.2391C127.076 34.0752 127.071 31.072 124.751 31.537V36.3538C124.893 36.5961 125.662 36.4836 125.515 36.8238C124.908 36.9217 123.89 36.9217 123.283 36.8238C123.373 36.486 123.777 36.6279 123.929 36.2951C124.127 35.8594 123.988 34.8657 123.988 34.0629V31.7133C123.848 31.5395 123.268 31.8063 123.283 31.4783C124.829 30.9447 127.519 30.979 127.453 32.7119C127.419 33.6052 126.719 33.8182 126.102 34.2391C126.739 35.1888 127.458 36.0577 128.099 37Z" fill="#D5A234"/>
<path fill-rule="evenodd" clip-rule="evenodd" d="M141.022 31.1844C142.474 31.3679 144.564 31.3728 146.016 31.1844C145.927 31.6641 145.886 32.1903 145.722 32.5942C145.428 32.4375 145.443 31.9725 145.311 31.6543C145.019 31.6298 144.319 31.6714 143.842 31.6543C143.729 33.1179 143.764 34.9438 143.842 36.4123C144.128 36.52 144.782 36.5665 144.782 36.7648C144.114 37.0365 142.944 36.8064 142.08 36.8823C142.175 36.4686 142.814 36.5983 143.078 36.3536V31.713C142.753 31.5491 142.053 31.7595 141.727 31.5955C141.424 31.8599 141.429 32.4326 141.022 32.5942V31.1844Z" fill="#D5A234"/>
</svg>
