<svg width="233" height="39" viewBox="0 0 233 39" fill="none" xmlns="http://www.w3.org/2000/svg">
<path d="M11.873 37.787V27.668L10.49 26.5859V37.265C10.9413 37.4576 11.4024 37.6317 11.873 37.787Z" fill="white"/>
<path d="M25.3501 37.41V31.405L25.342 31.396L24.259 31.696V37.8019C24.6284 37.6839 24.9921 37.5533 25.3501 37.41Z" fill="white"/>
<path d="M23.298 23.822L21.198 21.7219L18.011 18.5859V20.4219L23.302 25.179L23.298 23.822Z" fill="white"/>
<path d="M23.298 26.0641L18.0071 21.6211V23.4371L23.298 27.4291V26.0641Z" fill="white"/>
<path d="M23.298 28.4971L18.0071 24.7771V26.6241L23.298 29.8081V28.4971Z" fill="white"/>
<path d="M23.298 30.74L18.0071 27.7729V29.673L23.298 32.081V30.74Z" fill="white"/>
<path d="M23.298 32.9949L18.043 30.8829L18.0071 30.8679V32.7839L23.298 34.3019V32.9949Z" fill="white"/>
<path d="M23.298 35.2209C22.217 34.9709 19.0151 34.2289 18.0071 33.9929V35.947C19.9531 36.204 22.638 36.4819 23.298 36.5469V35.2209Z" fill="white"/>
<path d="M19.0961 38.6111C20.5127 38.612 21.9238 38.4343 23.296 38.0821V37.3081L18.005 36.9551V38.6101L19.0961 38.6111Z" fill="white"/>
<path d="M21.194 17.8901V16.9051L18.0071 12.9961V14.3231H18.017L21.194 17.8901Z" fill="white"/>
<path d="M18.0071 15.2031V16.4951L21.194 19.9951V18.8041L18.0071 15.2031Z" fill="white"/>
<path d="M19.095 0.72998H17.095C12.6314 0.72998 8.35058 2.50313 5.19434 5.65936C2.03811 8.8156 0.2649 13.0964 0.2649 17.56V21.782C0.262588 24.24 0.800009 26.6685 1.839 28.8961C2.87798 31.1237 4.39327 33.0961 6.27796 34.674V30.674L10.486 26.585L11.87 27.667V20.872L13.6129 19.309V15.641L17.101 11.897V8.06598H18.3009V11.981L21.668 16.063V20.513L24.2539 23.399V31.699L25.3369 31.399L25.344 31.408L28.523 34.887V35.724C30.8029 34.1836 32.6699 32.1071 33.9601 29.6768C35.2503 27.2464 35.9244 24.5365 35.923 21.785V17.563C35.9234 15.3528 35.4884 13.1641 34.643 11.1219C33.7975 9.07982 32.558 7.22423 30.9954 5.66113C29.4327 4.09803 27.5775 2.85805 25.5357 2.01196C23.4938 1.16587 21.3052 0.730243 19.095 0.72998Z" fill="#48C7E5"/>
<path d="M46 11.363H52.629L55.605 22.879H55.6531L58.629 11.363H65.2581V28.637H61.024V15.525H60.9761L57.347 28.6381H53.912L50.283 15.525H50.235V28.6381H46.001L46 11.363Z" fill="#48C7E5"/>
<path d="M73.074 11.363H77.647L84.1069 28.637H79.4139L78.3489 25.537H72.325L71.236 28.637H66.615L73.074 11.363ZM73.3639 22.202H77.283L75.3719 16.1541H75.3229L73.3639 22.202Z" fill="#48C7E5"/>
<path d="M85.365 11.363H89.9861L95.9861 22.0081H96.0341V11.363H100.268V28.637H95.647L89.647 17.871H89.598V28.637H85.364L85.365 11.363Z" fill="#48C7E5"/>
<path d="M108.036 11.363H112.609L119.069 28.637H114.376L113.311 25.537H107.287L106.198 28.637H101.577L108.036 11.363ZM108.326 22.202H112.245L110.334 16.1541H110.286L108.326 22.202Z" fill="#48C7E5"/>
<path d="M136.319 28.637H133.419L133.153 26.75C132.583 27.4763 131.85 28.0583 131.014 28.4492C130.177 28.84 129.261 29.0287 128.338 29C123.112 29 119.725 25.008 119.725 20C119.725 14.992 123.112 11 128.338 11C131.919 11 135.738 12.911 136.153 17.242H131.653C131.508 15.766 130.053 14.871 128.242 14.871C125.342 14.871 124.226 17.435 124.226 20C124.226 22.565 125.339 25.129 128.242 25.129C130.468 25.129 131.968 24.089 132.21 22.516H129.065V19.177H136.323L136.319 28.637Z" fill="#48C7E5"/>
<path d="M139.198 11.363H152.964V14.963H143.698V17.9871H152.165V21.471H143.698V24.7631H153.206V28.634H139.198V11.363Z" fill="#48C7E5"/>
<path d="M155.772 11.363H163.199C168.499 11.363 171.667 14.5811 171.667 19.9271C171.667 25.5881 168.449 28.637 163.199 28.637H155.772V11.363ZM160.272 24.7631H162.401C165.812 24.6901 167.167 23.363 167.167 19.9C167.167 16.755 165.473 15.231 162.401 15.231H160.272V24.7631Z" fill="#48C7E5"/>
<path d="M176.846 11H186.123C191.014 11 192.728 14.58 192.728 17.151C192.728 21.513 189.804 23.551 185.669 23.551H182.392V28.996H176.846V11ZM182.392 19.269H184.535C185.972 19.269 187.485 19.169 187.485 17.353C187.485 15.714 186.224 15.614 184.863 15.614H182.392V19.269Z" fill="white"/>
<path d="M193.641 11H201.532L204.103 21.588H204.154L206.725 11H214.616V29H209.373V17.454H209.322L206.196 29H202.062L198.936 17.454H198.886V29H193.642L193.641 11Z" fill="white"/>
<path d="M224.155 11.0001C225.286 10.9876 226.407 11.2072 227.449 11.6451C228.439 12.0658 229.324 12.6991 230.041 13.5001C230.782 14.3337 231.35 15.3062 231.712 16.3611C232.113 17.5322 232.31 18.7633 232.296 20.0011C232.311 21.25 232.113 22.4923 231.712 23.6751C231.355 24.7297 230.784 25.6996 230.036 26.5241C229.302 27.3193 228.402 27.9445 227.401 28.3561C226.316 28.797 225.155 29.0163 223.984 29.0011C222.479 29.0263 220.996 28.636 219.699 27.8731C218.438 27.1171 217.422 26.0128 216.774 24.6931C216.062 23.2412 215.706 21.6408 215.735 20.0241C215.7 18.3808 216.056 16.7528 216.774 15.2741C217.425 13.9505 218.453 12.8498 219.73 12.1111C221.079 11.3523 222.607 10.9687 224.155 11.0001ZM224.112 15.2791C223.47 15.2606 222.841 15.457 222.323 15.8371C221.798 16.2553 221.408 16.8197 221.203 17.4591C220.93 18.2936 220.802 19.1684 220.823 20.0461C220.817 20.759 220.91 21.4692 221.101 22.1561C221.252 22.7342 221.514 23.2775 221.872 23.7561C222.136 24.0618 222.468 24.3016 222.841 24.4561C223.236 24.6238 223.66 24.7089 224.089 24.7061C224.709 24.7257 225.316 24.526 225.803 24.1421C226.308 23.7044 226.673 23.1282 226.853 22.4851C227.11 21.6056 227.229 20.6919 227.207 19.7761C227.225 18.9606 227.1 18.1483 226.837 17.3761C226.636 16.7665 226.266 16.2264 225.771 15.8181C225.296 15.4531 224.71 15.2628 224.111 15.2791H224.112Z" fill="white"/>
</svg>
