<svg width="279" height="80" viewBox="0 0 279 80" fill="none" xmlns="http://www.w3.org/2000/svg">
<path d="M263.371 1.39684H262.237C261.582 1.39684 261.05 6.81219e-07 261.05 6.81219e-07H247.029C245.819 -0.000654336 244.659 0.471082 243.803 1.3115C242.947 2.15192 242.466 3.29223 242.464 4.48174C242.464 5.07147 242.582 5.65549 242.811 6.20042C243.04 6.74535 243.376 7.24052 243.8 7.65764C244.224 8.07476 244.727 8.40564 245.281 8.6314C245.835 8.85715 246.429 8.97335 247.029 8.97335H261.05C261.05 8.66376 261.175 8.36685 261.397 8.14793C261.62 7.92901 261.922 7.80603 262.237 7.80603H263.371C265.658 7.80603 267.851 8.69969 269.469 10.2904C271.086 11.8811 271.995 14.0386 271.995 16.2883V48.2281C271.995 50.4777 271.086 52.6352 269.469 54.2259C267.851 55.8166 265.658 56.7103 263.371 56.7103H203.259C200.972 56.7103 198.778 55.8166 197.161 54.2259C195.544 52.6352 194.635 50.4777 194.635 48.2281V16.2957C194.635 14.046 195.544 11.8885 197.161 10.2978C198.778 8.70709 200.972 7.81343 203.259 7.81343H204.393C204.708 7.81343 205.01 7.93642 205.232 8.15533C205.455 8.37425 205.58 8.67116 205.58 8.98075H219.604C220.204 8.98043 220.798 8.86375 221.352 8.63739C221.906 8.41103 222.409 8.07942 222.833 7.66155C223.257 7.24368 223.592 6.74775 223.821 6.20212C224.049 5.6565 224.166 5.07189 224.165 4.48174C224.164 3.29266 223.683 2.15272 222.827 1.31237C221.972 0.472026 220.812 -3.83213e-08 219.604 6.81219e-07H205.58C205.58 0.370466 205.43 0.725759 205.164 0.987718C204.898 1.24968 204.536 1.39684 204.16 1.39684H203.259C199.241 1.39684 195.389 2.96653 192.548 5.76061C189.707 8.55468 188.111 12.3442 188.111 16.2957V48.2281C188.111 52.1795 189.707 55.969 192.548 58.7631C195.389 61.5572 199.241 63.1269 203.259 63.1269H263.371C267.388 63.1269 271.241 61.5572 274.082 58.7631C276.923 55.969 278.518 52.1795 278.518 48.2281V16.2957C278.518 12.3442 276.923 8.55468 274.082 5.76061C271.241 2.96653 267.388 1.39684 263.371 1.39684Z" fill="#6388F0"/>
<path d="M228.754 47.9884C228.477 47.9887 228.207 47.8984 227.988 47.7319C227.768 47.5653 227.611 47.3318 227.54 47.0679L223.116 30.602L222.002 34.8369C221.932 35.1009 221.776 35.3346 221.556 35.5016C221.337 35.6686 221.068 35.7594 220.79 35.7599H203.111C202.778 35.7599 202.459 35.6299 202.224 35.3985C201.988 35.1671 201.856 34.8532 201.856 34.526C201.856 34.1987 201.988 33.8848 202.224 33.6534C202.459 33.422 202.778 33.292 203.111 33.292H219.819L221.907 25.4267C221.977 25.1628 222.134 24.929 222.353 24.762C222.572 24.5951 222.842 24.5042 223.119 24.5037C223.396 24.5039 223.664 24.5941 223.884 24.7601C224.103 24.9261 224.26 25.1588 224.331 25.4218L228.524 41.0684L233.542 13.8621C233.594 13.5809 233.743 13.326 233.964 13.141C234.186 12.956 234.466 12.8524 234.756 12.8478H234.776C235.065 12.8483 235.345 12.9468 235.569 13.1266C235.792 13.3065 235.946 13.5566 236.003 13.8349L240.748 35.7204L241.373 34.099C241.463 33.8649 241.623 33.6633 241.833 33.521C242.042 33.3786 242.29 33.3022 242.545 33.3019H261.195C261.528 33.3019 261.847 33.4319 262.083 33.6633C262.318 33.8947 262.45 34.2086 262.45 34.5358C262.45 34.8631 262.318 35.177 262.083 35.4084C261.847 35.6398 261.528 35.7698 261.195 35.7698H243.413L241.581 40.5131C241.485 40.7617 241.309 40.973 241.081 41.1155C240.852 41.258 240.583 41.3241 240.314 41.3038C240.044 41.2836 239.788 41.1781 239.584 41.0031C239.38 40.8282 239.239 40.5931 239.183 40.333L234.877 20.4662L229.989 46.9741C229.938 47.2509 229.793 47.5024 229.577 47.6868C229.361 47.8713 229.088 47.9777 228.802 47.9884H228.754Z" fill="#6388F0"/>
<path d="M204.157 37.0583C205.7 37.0583 206.95 35.8285 206.95 34.3115C206.95 32.7945 205.7 31.5647 204.157 31.5647C202.615 31.5647 201.365 32.7945 201.365 34.3115C201.365 35.8285 202.615 37.0583 204.157 37.0583Z" fill="#6388F0"/>
<path d="M261.617 37.0583C263.159 37.0583 264.409 35.8285 264.409 34.3115C264.409 32.7945 263.159 31.5647 261.617 31.5647C260.074 31.5647 258.824 32.7945 258.824 34.3115C258.824 35.8285 260.074 37.0583 261.617 37.0583Z" fill="#6388F0"/>
<path d="M245.162 74.4594H221.465C221.097 74.4589 220.735 74.3691 220.41 74.198C220.085 74.027 219.808 73.7799 219.604 73.4787C219.399 73.1774 219.273 72.8312 219.237 72.4707C219.2 72.1102 219.255 71.7465 219.395 71.4116L222.128 64.9061H244.502L247.234 71.4116C247.375 71.7466 247.43 72.1106 247.393 72.4713C247.357 72.8321 247.23 73.1784 247.025 73.4797C246.821 73.781 246.543 74.028 246.218 74.1989C245.893 74.3698 245.53 74.4593 245.162 74.4594Z" fill="#6388F0"/>
<path d="M252.064 76.3694H214.57C213.552 76.3694 212.726 77.1815 212.726 78.1833V78.1858C212.726 79.1876 213.552 79.9997 214.57 79.9997H252.064C253.083 79.9997 253.909 79.1876 253.909 78.1858V78.1833C253.909 77.1815 253.083 76.3694 252.064 76.3694Z" fill="#6388F0"/>
<path d="M59.5196 74.2431H36.3576L18.6054 47.1774V74.2431H0V3.83838H28.9531C32.941 3.83838 36.422 4.41423 39.3962 5.56592C42.3704 6.71761 44.8227 8.28967 46.753 10.2821C48.6768 12.2655 50.164 14.6179 51.1215 17.1923C52.116 19.8859 52.6139 22.7324 52.5918 25.598C52.5918 30.9517 51.2787 35.2936 48.6525 38.6236C46.0262 41.9537 42.1496 44.2102 37.0225 45.3931L59.5196 74.2431ZM18.6054 35.3043H22.1182C25.7882 35.3043 28.6043 34.5573 30.5665 33.0634C32.5287 31.5695 33.5097 29.4224 33.5097 26.6222C33.5097 23.8252 32.5287 21.6773 30.5665 20.1784C28.6043 18.6796 25.7882 17.9326 22.1182 17.9376H18.6054V35.3043Z" fill="white"/>
<path d="M103.949 10.0001C99.6752 5.88692 93.5202 3.83032 85.4843 3.83032H55.8763V18.5835H80.6541C87.4891 18.5835 90.9065 21.5088 90.9065 27.3595C90.9065 33.2101 87.4849 36.1387 80.6416 36.1452H55.8637V74.2425H74.4716V50.8984H85.4843C93.5135 50.8984 99.6685 48.8419 103.949 44.7287C108.23 40.6155 110.366 34.8257 110.357 27.3595C110.357 19.8965 108.221 14.11 103.949 10.0001Z" fill="white"/>
<path d="M172.948 3.83789H154.531L140.292 41.3749L125.957 3.83789H107.54L106.802 8.10738C111.406 12.8112 113.747 19.2846 113.747 27.3571C113.747 35.7233 111.238 42.3694 106.318 47.1004C104.278 49.0472 101.89 50.6068 99.2747 51.7006L95.4005 74.2426H113.913L120.083 33.7169L136.127 74.2426H143.531L160.43 33.7169L166.6 74.2426H185.113L172.948 3.83789Z" fill="white"/>
</svg>
