<?xml version="1.0" standalone="no"?>
<!DOCTYPE svg PUBLIC "-//W3C//DTD SVG 20010904//EN"
 "http://www.w3.org/TR/2001/REC-SVG-20010904/DTD/svg10.dtd">
<svg version="1.0" xmlns="http://www.w3.org/2000/svg"
 width="700.000000pt" height="700.000000pt" viewBox="0 0 700.000000 700.000000"
 preserveAspectRatio="xMidYMid meet">
<metadata>
Created by potrace 1.14, written by Peter Selinger 2001-2017
</metadata>
<g transform="translate(0.000000,700.000000) scale(0.100000,-0.100000)"
fill="#000000" stroke="none">
<path d="M3580 6990 c-206 -25 -355 -63 -527 -137 -109 -46 -137 -50 -223 -28
-118 29 -379 24 -541 -10 -638 -134 -1277 -665 -1624 -1350 -86 -170 -103
-209 -148 -350 -36 -112 -61 -220 -72 -310 -3 -27 -10 -74 -16 -104 -5 -30 -9
-56 -9 -57 0 -2 -30 -38 -67 -81 -118 -138 -189 -268 -249 -451 -38 -116 -79
-308 -91 -422 -10 -96 -10 -422 -1 -520 18 -189 63 -421 108 -550 113 -328
256 -605 439 -850 100 -135 214 -252 336 -345 93 -71 103 -83 125 -158 117
-391 506 -787 1007 -1023 148 -71 395 -155 526 -179 12 -3 45 -9 72 -15 163
-33 307 -45 525 -45 349 0 546 38 828 157 93 39 99 40 167 22 137 -36 398 -35
552 1 37 9 76 18 86 20 53 11 221 71 306 110 179 80 431 239 567 357 57 49
266 257 309 308 48 55 197 258 248 337 164 252 314 635 341 868 20 175 17 165
89 249 69 80 130 174 177 270 39 81 114 296 125 358 3 18 10 51 16 73 30 125
38 235 34 460 -2 127 -6 246 -9 265 -2 19 -7 62 -11 95 -3 33 -11 79 -16 103
-5 23 -12 59 -15 80 -20 139 -138 471 -240 675 -159 318 -348 559 -613 783
-89 75 -95 82 -112 139 -15 55 -35 105 -77 195 -136 294 -497 621 -905 818
-181 88 -427 172 -575 198 -12 2 -48 8 -80 14 -31 5 -82 12 -112 15 -30 4 -68
8 -85 11 -53 9 -498 12 -565 4z m445 -43 c11 -2 45 -7 75 -11 132 -19 350 -78
498 -136 441 -172 776 -427 1001 -763 52 -78 111 -191 111 -214 0 -8 -16 -6
-52 7 -81 28 -110 32 -293 35 -244 5 -406 -32 -636 -144 -148 -72 -208 -110
-333 -209 -184 -147 -313 -358 -384 -626 -24 -92 -26 -118 -26 -296 -1 -107 2
-223 6 -258 l8 -63 -153 6 c-157 5 -249 11 -327 21 -100 12 -184 25 -227 35
-55 14 -55 14 23 177 30 63 54 116 54 119 0 3 6 19 14 36 19 42 61 160 81 222
8 28 19 64 25 80 35 114 83 354 98 495 11 105 7 369 -7 455 -32 201 -101 381
-165 430 -31 24 -38 25 -73 16 -58 -16 -82 -38 -113 -103 l-28 -59 54 -114
c127 -262 158 -553 100 -930 -3 -22 -8 -51 -11 -65 -2 -14 -6 -36 -9 -50 -2
-14 -20 -90 -40 -168 -59 -233 -158 -482 -192 -482 -44 0 -284 113 -369 174
-77 55 -221 203 -271 279 -107 161 -162 308 -192 507 -9 61 -9 309 0 391 37
327 175 632 371 816 62 59 56 58 202 22 88 -22 266 -32 282 -16 11 12 -15 50
-92 133 -41 43 -74 81 -75 84 -1 18 293 114 415 135 210 37 276 43 450 39 99
-3 189 -6 200 -7z m-1401 -316 l29 -6 -32 -35 c-143 -154 -193 -230 -265 -400
-47 -110 -90 -247 -101 -321 -20 -129 -22 -168 -20 -319 4 -261 27 -382 105
-546 117 -248 293 -434 535 -564 33 -18 89 -48 125 -67 96 -52 96 -52 67 -110
-75 -146 -378 -563 -411 -563 -6 0 -30 31 -54 69 -121 197 -262 373 -436 546
-148 146 -155 153 -275 240 -169 124 -314 201 -482 256 -126 41 -182 52 -270
52 -104 1 -137 -30 -144 -133 -2 -32 5 -47 41 -94 41 -52 47 -56 87 -57 260
-3 503 -84 733 -245 223 -156 518 -449 661 -656 l53 -76 -58 -49 c-184 -157
-363 -249 -558 -287 -57 -11 -120 -14 -224 -11 -180 5 -203 9 -315 46 -330
111 -662 394 -829 709 -50 95 -106 252 -106 298 0 32 30 79 122 189 60 73 118
172 118 204 0 15 -4 17 -24 10 -13 -5 -48 -12 -79 -15 -30 -4 -77 -13 -104
-21 -26 -8 -49 -15 -51 -15 -1 0 0 27 3 61 20 205 95 442 221 693 209 417 604
801 1052 1026 200 100 354 150 542 176 25 4 68 10 95 14 57 9 205 9 249 1z
m2831 -805 c69 -5 105 -10 150 -20 6 -1 36 -11 68 -21 l58 -19 36 -115 c19
-64 46 -138 58 -166 28 -62 91 -137 98 -115 2 8 12 38 22 65 14 39 51 164 54
183 1 6 83 -56 144 -110 361 -317 636 -857 702 -1383 4 -27 8 -61 11 -75 8
-48 17 -206 17 -290 1 -320 -63 -611 -193 -875 -33 -66 -72 -136 -88 -155
l-30 -35 -11 45 c-50 191 -120 330 -249 490 -154 192 -308 313 -555 435 -217
108 -227 110 -477 110 -118 0 -231 -3 -251 -7 -44 -9 -195 -62 -235 -83 -16
-8 -32 -15 -35 -15 -15 0 -171 -93 -249 -149 -47 -34 -90 -61 -96 -61 -14 0
-73 97 -138 227 -73 145 -185 447 -171 462 3 3 16 6 28 7 29 2 164 15 202 19
17 2 55 6 85 10 302 34 555 108 825 240 283 138 521 338 608 509 37 74 25 121
-44 172 -29 21 -41 24 -83 18 -79 -10 -91 -18 -149 -106 -182 -277 -445 -463
-846 -600 -108 -37 -266 -80 -341 -93 -19 -4 -71 -13 -115 -21 -89 -16 -215
-29 -215 -22 0 2 -4 29 -9 59 -49 280 -25 534 70 746 61 136 213 328 342 431
204 164 525 293 767 309 47 3 86 7 88 8 1 1 17 1 35 -1 17 -1 68 -5 112 -8z
m-4990 -1621 c134 -469 658 -918 1145 -981 283 -37 616 59 885 255 l99 72 18
-23 c78 -100 171 -295 264 -557 47 -130 47 -131 -23 -132 -111 -1 -174 -7
-358 -34 -467 -69 -901 -265 -1168 -528 -169 -166 -225 -279 -169 -340 48 -53
89 -67 157 -53 11 3 27 5 36 5 10 1 47 46 85 103 263 395 780 651 1475 731
l36 4 11 -51 c38 -180 31 -478 -15 -616 -65 -196 -156 -346 -292 -480 -110
-109 -210 -179 -366 -255 -217 -107 -374 -146 -600 -150 -166 -3 -253 7 -355
41 l-55 19 -46 135 c-25 74 -50 146 -56 160 -15 34 -71 110 -81 110 -5 0 -14
-15 -20 -32 -6 -18 -26 -77 -44 -131 l-34 -97 -88 77 c-346 297 -576 675 -696
1143 -63 245 -76 359 -74 671 1 176 7 278 18 334 44 212 94 371 160 506 47 94
118 207 123 193 1 -5 14 -49 28 -99z m2845 60 c146 -43 348 -78 545 -95 185
-15 166 -5 194 -112 47 -187 133 -418 225 -606 20 -40 36 -76 36 -80 0 -4 -30
-39 -67 -77 -38 -39 -87 -93 -111 -120 -52 -60 -229 -294 -265 -350 -14 -22
-38 -55 -54 -74 l-29 -34 -150 36 c-82 20 -167 39 -189 43 -22 4 -47 8 -57 10
-9 1 -38 5 -65 9 -26 4 -59 9 -73 11 -14 2 -77 6 -140 9 -69 4 -119 11 -126
18 -6 7 -19 46 -29 87 -39 160 -114 364 -206 559 -33 68 -59 127 -59 130 0 3
21 29 46 56 53 58 184 205 196 220 75 94 124 161 191 263 44 67 85 122 91 122
6 0 49 -12 96 -25z m2045 -519 c144 -10 218 -32 384 -113 220 -108 381 -236
532 -425 127 -159 181 -263 234 -443 30 -103 28 -107 -66 -212 -72 -80 -159
-208 -159 -234 0 -27 9 -29 95 -13 158 30 165 30 165 3 0 -67 -58 -304 -110
-454 -42 -120 -133 -308 -205 -424 -198 -320 -560 -656 -907 -840 -173 -92
-401 -174 -548 -196 -25 -4 -54 -10 -65 -12 -11 -3 -88 -7 -171 -9 -182 -5
-196 1 -133 60 163 156 322 496 357 766 14 112 6 450 -13 549 -52 269 -224
539 -454 711 -81 61 -257 161 -333 191 l-57 21 39 75 c75 142 251 394 362 517
l44 48 54 -83 c298 -459 638 -782 1015 -964 172 -83 342 -130 463 -127 87 1
117 32 127 127 4 40 0 50 -35 94 -42 53 -51 57 -165 66 -207 17 -432 95 -614
213 -241 157 -497 403 -685 657 -36 50 -66 93 -66 97 0 24 181 171 277 224
132 75 294 128 403 133 30 1 56 4 58 5 2 3 45 1 177 -8z m-2008 -1020 c33 -3
78 -8 100 -11 98 -15 222 -36 265 -46 54 -12 55 -1 -11 -143 -144 -306 -230
-574 -267 -825 -4 -25 -8 -54 -10 -63 -8 -46 -18 -215 -18 -313 0 -243 33
-411 110 -572 40 -83 72 -113 121 -113 68 0 113 38 142 120 l19 54 -43 80
c-71 131 -117 291 -131 456 -31 341 53 804 213 1178 41 95 42 95 143 58 170
-61 299 -143 421 -265 171 -171 289 -399 323 -621 10 -59 7 -452 -3 -512 -16
-92 -67 -267 -105 -356 -66 -153 -142 -267 -261 -390 l-51 -53 -89 21 c-124
30 -125 30 -170 37 -56 8 -64 8 -122 0 -29 -4 -53 -11 -53 -16 0 -12 52 -79
114 -146 30 -33 52 -63 47 -68 -26 -26 -345 -124 -461 -142 -19 -3 -64 -9
-100 -14 -96 -14 -497 -5 -610 13 -203 33 -500 134 -710 243 -69 36 -132 71
-141 79 -8 8 -19 14 -24 14 -13 0 -172 116 -245 179 -101 87 -205 197 -279
296 -62 83 -78 108 -134 205 -21 38 -39 90 -30 90 3 0 44 -10 92 -22 122 -31
389 -31 536 1 185 40 320 94 485 196 302 187 478 407 560 698 50 181 64 352
45 579 -7 89 -6 96 11 100 26 5 245 1 321 -6z"/>
</g>
</svg>
