<svg width="217" height="85" viewBox="0 0 217 85" fill="none" xmlns="http://www.w3.org/2000/svg">
<g clip-path="url(#clip0)">
<path d="M29.6082 30.2954C24.6486 30.2954 20.6152 34.3288 20.6152 39.2884V48.7594C23.334 50.0441 26.3815 50.7611 29.6082 50.7611C32.8349 50.7611 35.8824 50.0441 38.6012 48.7594V39.2884C38.6012 34.3288 34.5678 30.2954 29.6082 30.2954Z" fill="black"/>
<path d="M41.2603 32.058C43.5609 32.058 45.4132 30.0264 45.4132 27.5466C45.4132 25.0668 43.5609 23.0352 41.2603 23.0352C38.9598 23.0352 37.1074 25.0668 37.1074 27.5466C37.1074 30.0264 38.9598 32.058 41.2603 32.058Z" fill="black"/>
<path d="M41.2602 33.6714C44.7558 33.6714 47.6539 36.0615 48.4606 39.3181C46.6381 42.8436 43.8296 45.8313 40.4237 47.8331V39.2883C40.4237 37.406 39.9456 35.5835 39.0493 34C39.7365 33.7909 40.4834 33.6714 41.2602 33.6714Z" fill="black"/>
<path d="M18.7326 8.51478L15.8047 3.4357C24.0507 -0.926343 34.2089 -1.25499 43.0525 3.22656L40.1544 8.33552C33.1931 4.86979 25.2458 5.13868 18.7326 8.51478Z" fill="url(#paint0_linear)"/>
<path d="M55.392 44.158C47.3551 58.4093 29.2795 63.4286 15.0581 55.3917C0.806766 47.3548 -4.21257 29.2792 3.82434 15.0578C6.27425 10.7256 9.65035 7.23004 13.5642 4.72037L16.4922 9.82933C13.4746 11.8311 10.8454 14.5499 8.9333 17.926C2.47988 29.3689 6.51327 43.8293 17.9263 50.2828C29.3393 56.7362 43.8296 52.7028 50.283 41.2898C56.4975 30.2652 52.9421 16.3724 42.3955 9.62019L45.2936 4.51123C58.6785 12.8469 63.2198 30.2951 55.392 44.158Z" fill="black"/>
<path d="M32.6853 63.9365H32.5957V57.752H26.6502V63.9365H26.5606C25.7838 63.9365 25.1265 64.5639 25.1265 65.3706V84.8504H34.0896V65.3706C34.0896 64.5639 33.4621 63.9365 32.6853 63.9365Z" fill="black"/>
<path d="M46.6079 71.9734C46.6079 70.2705 46.9067 68.5973 47.5042 67.0437C48.1018 65.4603 48.9981 64.0859 50.1334 62.8908C51.2687 61.6958 52.6729 60.7397 54.346 60.0525C56.0192 59.3654 57.9014 59.0068 60.0526 59.0068C62.9506 59.0068 65.3706 59.6343 67.3425 60.8293C69.3144 62.0543 70.7784 63.6378 71.7942 65.6096L64.3548 67.8504C63.3689 66.2669 61.9348 65.4603 60.0227 65.4603C58.4392 65.4603 57.0947 66.0578 56.049 67.223C54.9735 68.3882 54.4656 69.9717 54.4656 71.9436C54.4656 72.9295 54.6149 73.8258 54.8838 74.6325C55.1826 75.4392 55.571 76.1263 56.0789 76.694C56.5868 77.2617 57.1844 77.7098 57.8715 78.0385C58.5587 78.3671 59.2757 78.5165 60.0526 78.5165C61.0086 78.5165 61.875 78.2775 62.6817 77.8293C63.4884 77.3812 64.0561 76.7836 64.4445 76.0367L71.8838 78.3372C70.9576 80.2792 69.4937 81.8627 67.462 83.1176C65.4304 84.3724 62.9805 84.9699 60.0824 84.9699C57.991 84.9699 56.1088 84.6114 54.4357 83.8944C52.7626 83.1773 51.3583 82.2213 50.1931 81.0262C49.0279 79.8311 48.1615 78.4567 47.5341 76.8733C46.9067 75.3197 46.6079 73.6764 46.6079 71.9734Z" fill="url(#paint1_linear)"/>
<path d="M98.4746 84.5221H90.856V70.45C90.856 68.8367 90.5273 67.6416 89.8999 66.8648C89.2725 66.088 88.3762 65.7295 87.2707 65.7295C86.8226 65.7295 86.3445 65.8191 85.8067 66.0283C85.269 66.2374 84.7611 66.5362 84.283 66.9246C83.7751 67.313 83.327 67.791 82.9087 68.3288C82.4904 68.8666 82.1617 69.4641 81.9526 70.1513V84.5221H74.334V49.6855H81.9526V63.668C82.8788 62.1741 84.1038 61.0089 85.5976 60.2022C87.1213 59.3956 88.7646 58.9773 90.5871 58.9773C92.2602 58.9773 93.6345 59.2761 94.6802 59.8736C95.7259 60.4711 96.5027 61.2181 97.0704 62.1144C97.638 63.0107 97.9966 64.0265 98.2057 65.1618C98.385 66.2971 98.5045 67.4026 98.5045 68.4782V84.5221H98.4746Z" fill="url(#paint2_linear)"/>
<path d="M114.518 84.9998C112.397 84.9998 110.485 84.6413 108.812 83.9541C107.139 83.2669 105.734 82.3109 104.599 81.1158C103.464 79.9207 102.597 78.5464 102 76.9629C101.402 75.3794 101.104 73.7362 101.104 72.0332C101.104 70.3302 101.402 68.6571 102 67.1035C102.597 65.52 103.464 64.1457 104.599 62.9506C105.734 61.7555 107.139 60.7995 108.812 60.0824C110.485 59.3654 112.367 59.0068 114.518 59.0068C116.64 59.0068 118.552 59.3654 120.195 60.0824C121.838 60.7995 123.242 61.7555 124.408 62.9506C125.543 64.1457 126.439 65.52 127.037 67.1035C127.634 68.687 127.933 70.3302 127.933 72.0332C127.933 73.7362 127.634 75.4093 127.037 76.9629C126.439 78.5464 125.573 79.9207 124.437 81.1158C123.302 82.3109 121.898 83.2669 120.225 83.9541C118.552 84.6413 116.64 84.9998 114.518 84.9998ZM108.931 72.0033C108.931 73.9752 109.469 75.5587 110.515 76.7538C111.56 77.9488 112.905 78.5464 114.518 78.5464C115.325 78.5464 116.042 78.397 116.699 78.0683C117.357 77.7397 117.954 77.2915 118.432 76.7239C118.91 76.1562 119.328 75.469 119.597 74.6624C119.896 73.8557 120.016 72.9594 120.016 72.0033C120.016 70.0314 119.478 68.448 118.432 67.2529C117.386 66.0578 116.072 65.4603 114.459 65.4603C113.652 65.4603 112.935 65.6096 112.248 65.9383C111.56 66.2669 110.963 66.7151 110.485 67.2828C109.977 67.8504 109.589 68.5376 109.32 69.3443C109.081 70.1808 108.931 71.0473 108.931 72.0033Z" fill="url(#paint3_linear)"/>
<path d="M130.742 56.5872V49.6558H138.36V56.5872H130.742ZM130.742 84.5222V59.4554H138.36V84.4923L130.742 84.5222Z" fill="url(#paint4_linear)"/>
<path d="M141.169 71.9734C141.169 70.2705 141.468 68.5973 142.065 67.0437C142.663 65.4603 143.559 64.0859 144.694 62.8908C145.83 61.6958 147.234 60.7397 148.907 60.0525C150.58 59.3654 152.462 59.0068 154.614 59.0068C157.512 59.0068 159.932 59.6343 161.904 60.8293C163.875 62.0543 165.339 63.6378 166.355 65.6096L158.916 67.8504C157.93 66.2669 156.496 65.4603 154.584 65.4603C153 65.4603 151.656 66.0578 150.61 67.223C149.535 68.3882 149.027 69.9717 149.027 71.9436C149.027 72.9295 149.176 73.8258 149.445 74.6325C149.744 75.4392 150.132 76.1263 150.64 76.694C151.148 77.2617 151.745 77.7098 152.433 78.0385C153.12 78.3671 153.837 78.5165 154.614 78.5165C155.57 78.5165 156.436 78.2775 157.243 77.8293C158.049 77.3812 158.617 76.7836 159.006 76.0367L166.445 78.3372C165.519 80.2792 164.055 81.8627 162.023 83.1176C159.991 84.3724 157.542 84.9699 154.643 84.9699C152.552 84.9699 150.67 84.6114 148.997 83.8944C147.324 83.1773 145.919 82.2213 144.754 81.0262C143.589 79.8311 142.723 78.4567 142.095 76.8733C141.468 75.3197 141.169 73.6764 141.169 71.9734Z" fill="url(#paint5_linear)"/>
<path d="M180.636 84.9998C178.545 84.9998 176.662 84.6712 174.989 83.984C173.316 83.2968 171.912 82.3706 170.747 81.2054C169.582 80.0402 168.715 78.6659 168.088 77.1123C167.49 75.5587 167.191 73.9453 167.191 72.2722C167.191 70.4497 167.49 68.7467 168.088 67.1334C168.685 65.52 169.582 64.1158 170.717 62.9207C171.852 61.7256 173.256 60.7696 174.93 60.0525C176.603 59.3654 178.485 59.0068 180.636 59.0068C182.757 59.0068 184.669 59.3654 186.313 60.0525C187.956 60.7397 189.36 61.6958 190.525 62.8908C191.661 64.0859 192.527 65.4603 193.125 67.0139C193.722 68.5675 194.021 70.2107 194.021 71.9137C194.021 72.3618 193.991 72.81 193.961 73.2283C193.931 73.6466 193.872 74.035 193.812 74.3636H175.288C175.408 76.0367 176.035 77.3214 177.111 78.2177C178.216 79.0842 179.441 79.5323 180.845 79.5323C181.951 79.5323 183.026 79.2634 184.072 78.7256C185.118 78.1879 185.805 77.4409 186.133 76.5446L192.617 78.3671C191.631 80.339 190.107 81.9524 188.046 83.1773C186.014 84.3724 183.534 84.9998 180.636 84.9998ZM185.924 69.6132C185.775 68.0297 185.177 66.7748 184.221 65.8487C183.235 64.9225 182.01 64.4743 180.546 64.4743C179.053 64.4743 177.828 64.9524 176.842 65.8785C175.886 66.8047 175.318 68.0596 175.139 69.6132H185.924Z" fill="url(#paint6_linear)"/>
<path d="M206.39 85.0002C204.269 85.0002 202.148 84.6716 200.086 83.9844C198.024 83.2972 196.262 82.3113 194.828 80.9967L197.546 76.3359C199.07 77.3816 200.564 78.1883 201.998 78.7559C203.432 79.3236 204.836 79.6223 206.181 79.6223C207.167 79.6223 207.944 79.4431 208.481 79.0846C209.019 78.726 209.288 78.2181 209.288 77.5608C209.288 76.9035 208.959 76.3658 208.272 75.9774C207.585 75.589 206.39 75.1707 204.657 74.7225C202.984 74.2445 201.55 73.7963 200.385 73.3482C199.22 72.9 198.263 72.422 197.546 71.8543C196.8 71.3165 196.292 70.6891 195.963 70.002C195.634 69.3148 195.485 68.4782 195.485 67.5222C195.485 66.2375 195.754 65.1021 196.262 64.0266C196.77 62.9809 197.457 62.0846 198.353 61.3675C199.249 60.6505 200.295 60.0529 201.52 59.6645C202.745 59.2462 204.06 59.0371 205.494 59.0371C207.376 59.0371 209.139 59.306 210.752 59.8139C212.395 60.3218 213.979 61.248 215.503 62.5925L212.545 67.1636C211.111 66.1777 209.856 65.4607 208.72 65.0125C207.615 64.5644 206.539 64.3552 205.464 64.3552C204.627 64.3552 203.94 64.5345 203.372 64.8631C202.805 65.1918 202.506 65.7295 202.506 66.4466C202.506 67.1338 202.805 67.6716 203.432 68.0301C204.06 68.3886 205.195 68.777 206.898 69.1654C208.691 69.6434 210.184 70.1215 211.409 70.5995C212.634 71.0775 213.62 71.6153 214.397 72.183C215.174 72.7805 215.712 73.4378 216.07 74.2146C216.429 74.9914 216.608 75.8877 216.608 76.9334C216.608 79.4132 215.682 81.3851 213.829 82.8491C212.037 84.2533 209.557 85.0002 206.39 85.0002Z" fill="url(#paint7_linear)"/>
<path d="M83.2375 23.6029C83.1479 23.5132 82.879 23.3041 82.4308 23.0352C81.9528 22.7364 81.3851 22.4675 80.698 22.1389C80.0108 21.8401 79.234 21.5712 78.3974 21.3322C77.5609 21.0932 76.7542 20.9737 75.9176 20.9737C73.647 20.9737 72.5117 21.7505 72.5117 23.2742C72.5117 23.7522 72.6312 24.1406 72.8702 24.4394C73.1092 24.7382 73.4677 25.037 73.9458 25.276C74.4238 25.515 75.0213 25.754 75.7384 25.9631C76.4554 26.1723 77.292 26.4113 78.248 26.6503C79.5626 27.0088 80.7577 27.3972 81.8333 27.8454C82.9089 28.2637 83.8052 28.8015 84.5222 29.4289C85.2691 30.0563 85.8368 30.8331 86.2252 31.7294C86.6136 32.6257 86.8227 33.7312 86.8227 34.986C86.8227 36.5396 86.524 37.8542 85.9563 38.9297C85.3886 40.0053 84.6118 40.8718 83.6558 41.529C82.6997 42.1863 81.5943 42.6644 80.3693 42.9631C79.1444 43.2619 77.8596 43.4113 76.5152 43.4113C75.4994 43.4113 74.4835 43.3217 73.408 43.1723C72.3324 43.0229 71.3166 42.7839 70.3008 42.4851C69.285 42.1863 68.299 41.8278 67.3728 41.4095C66.4168 40.9913 65.5503 40.5132 64.7437 39.9754L67.5521 34.4183C67.6417 34.5378 68.0002 34.8067 68.5679 35.1652C69.1356 35.5238 69.8526 35.8823 70.6892 36.2408C71.5257 36.5993 72.4818 36.928 73.4976 37.1969C74.5433 37.4957 75.589 37.6152 76.6347 37.6152C78.8755 37.6152 80.0108 36.928 80.0108 35.5536C80.0108 35.0457 79.8315 34.5976 79.5029 34.2689C79.1742 33.9403 78.6962 33.6415 78.0987 33.3428C77.5011 33.0739 76.7841 32.805 75.9774 32.5958C75.1707 32.3568 74.2744 32.1178 73.3183 31.819C72.0635 31.4306 70.9581 31.0123 70.0319 30.5642C69.1057 30.116 68.3289 29.5783 67.7313 28.9807C67.1338 28.3832 66.6558 27.696 66.3869 26.9192C66.0881 26.1424 65.9387 25.2461 65.9387 24.2004C65.9387 22.7364 66.2076 21.4816 66.7454 20.3463C67.2832 19.2408 68.0301 18.2848 68.9563 17.5378C69.8825 16.761 70.9581 16.1934 72.2129 15.805C73.4379 15.4166 74.7524 15.2373 76.1268 15.2373C77.0828 15.2373 78.0389 15.3269 78.9651 15.5062C79.8913 15.6855 80.7876 15.9245 81.654 16.1934C82.5205 16.4921 83.2973 16.7909 84.0442 17.1494C84.7911 17.508 85.4484 17.8665 86.0758 18.225L83.2375 23.6029Z" fill="black"/>
<path d="M122.287 43.0829H116.072V31.64C116.072 30.2955 115.833 29.3096 115.325 28.712C114.847 28.1145 114.19 27.7858 113.413 27.7858C112.995 27.7858 112.577 27.8755 112.158 28.0547C111.74 28.234 111.322 28.5029 110.963 28.8017C110.605 29.1303 110.276 29.5187 109.977 29.937C109.678 30.3851 109.439 30.8632 109.26 31.3711V43.053H103.076V31.6101C103.076 30.2656 102.837 29.2797 102.329 28.6822C101.851 28.0846 101.193 27.756 100.417 27.756C99.5801 27.756 98.7734 28.0846 97.9966 28.7419C97.2198 29.3992 96.6223 30.2656 96.2637 31.3711V43.053H90.0493V22.7068H95.6363V26.1127C96.3832 24.8579 97.3991 23.9317 98.6838 23.2744C99.9685 22.6171 101.462 22.3184 103.165 22.3184C104.032 22.3184 104.749 22.408 105.406 22.6171C106.033 22.8263 106.601 23.0952 107.049 23.4836C107.527 23.8421 107.886 24.2604 108.185 24.7384C108.483 25.2164 108.663 25.7243 108.812 26.2621C109.589 25.0073 110.605 24.0213 111.889 23.3342C113.144 22.647 114.608 22.3184 116.251 22.3184C117.536 22.3184 118.582 22.5574 119.389 23.0354C120.165 23.5134 120.793 24.1409 121.241 24.8878C121.689 25.6646 121.958 26.5011 122.107 27.3974C122.257 28.2938 122.316 29.1901 122.316 30.0266V43.0829H122.287Z" fill="black"/>
<path d="M132.146 43.4711C131.13 43.4711 130.204 43.3217 129.337 42.993C128.471 42.6644 127.724 42.2162 127.096 41.6486C126.469 41.0809 125.991 40.3937 125.633 39.5871C125.274 38.8103 125.095 37.9438 125.095 37.0176C125.095 36.0018 125.304 35.0756 125.722 34.269C126.14 33.4324 126.738 32.7154 127.515 32.1477C128.292 31.5502 129.218 31.0721 130.263 30.7435C131.339 30.4148 132.504 30.2356 133.789 30.2356C134.655 30.2356 135.462 30.2953 136.269 30.4447C137.075 30.5941 137.763 30.8032 138.36 31.0721V30.1459C138.36 27.7857 137.016 26.6205 134.297 26.6205C133.191 26.6205 132.116 26.7997 131.1 27.1881C130.084 27.5765 129.038 28.1143 127.903 28.8911L126.081 25.0071C127.425 24.1407 128.829 23.4535 130.263 23.0352C131.727 22.5871 133.251 22.3779 134.894 22.3779C137.972 22.3779 140.362 23.095 142.035 24.5589C143.708 26.0229 144.545 28.1442 144.545 30.9227V36.1512C144.545 36.7786 144.634 37.1969 144.843 37.4658C145.023 37.7048 145.381 37.8542 145.859 37.914V43.1424C145.321 43.2619 144.814 43.3516 144.395 43.3814C143.947 43.4113 143.559 43.4412 143.2 43.4412C142.035 43.4412 141.169 43.2022 140.571 42.754C139.973 42.3059 139.615 41.6486 139.436 40.8419L139.316 39.9157C138.42 41.0809 137.314 41.9772 136.06 42.6046C134.864 43.1723 133.55 43.4711 132.146 43.4711ZM133.968 39.0194C134.655 39.0194 135.283 38.8999 135.94 38.6609C136.567 38.4219 137.105 38.1231 137.524 37.7347C138.121 37.2567 138.42 36.7786 138.42 36.2707V34.3287C137.882 34.1196 137.285 33.9702 136.657 33.8507C136.03 33.7312 135.432 33.6714 134.894 33.6714C133.759 33.6714 132.803 33.9403 132.086 34.4482C131.339 34.9561 130.98 35.6433 130.98 36.4799C130.98 37.2268 131.279 37.8542 131.847 38.3322C132.355 38.7804 133.102 39.0194 133.968 39.0194Z" fill="black"/>
<path d="M162.053 28.0246C160.559 28.0545 159.185 28.2935 157.99 28.7715C156.765 29.2495 155.898 29.9367 155.36 30.8629V43.0826H149.146V22.7065H154.852V26.8295C155.54 25.4552 156.436 24.3796 157.541 23.6028C158.647 22.826 159.812 22.4376 161.067 22.4077C161.366 22.4077 161.545 22.4077 161.694 22.4077C161.814 22.4077 161.963 22.4077 162.083 22.4376V28.0246H162.053Z" fill="black"/>
<path d="M177.858 42.007C176.991 42.3655 176.035 42.6941 174.93 43.0228C173.824 43.3216 172.719 43.5008 171.613 43.5008C170.836 43.5008 170.119 43.4112 169.432 43.2021C168.745 42.9929 168.148 42.6941 167.64 42.2759C167.132 41.8576 166.713 41.2899 166.415 40.5729C166.116 39.8857 165.966 39.0193 165.966 38.0632V27.3971H163.367V22.7064H165.966V16.2231H172.181V22.7064H176.334V27.3971H172.181V35.9121C172.181 36.5992 172.36 37.0773 172.689 37.376C173.017 37.6748 173.466 37.8242 173.974 37.8242C174.452 37.8242 174.93 37.7346 175.408 37.5852C175.886 37.4358 176.334 37.2565 176.692 37.0773L177.858 42.007Z" fill="black"/>
<path d="M22.1686 27.5466C22.1686 25.0668 20.3162 23.0352 18.0157 23.0352C15.7152 23.0352 13.8628 25.0668 13.8628 27.5466C13.8628 30.0264 15.7152 32.058 18.0157 32.058C20.3162 32.058 22.1686 30.0264 22.1686 27.5466Z" fill="black"/>
<path d="M20.2267 34C19.3304 35.5835 18.8523 37.406 18.8523 39.2883V47.8331C15.4464 45.8313 12.6379 42.8436 10.8154 39.3181C11.6221 36.0615 14.5202 33.6714 18.0158 33.6714C18.7926 33.6714 19.5395 33.7909 20.2267 34Z" fill="black"/>
<path d="M34.1195 24.29C33.8207 22.4376 34.7469 18.4042 31.2513 18.5536C31.2513 18.5536 29.8471 15.9842 26.471 18.5536C24.9174 20.1072 25.1265 23.7223 25.007 24.6485C24.9473 25.5747 24.9473 26.4411 23.5132 27.2179C23.5132 27.2179 24.1107 28.2039 26.471 28.7715C25.6046 27.188 25.6345 24.7979 25.6345 24.7979C25.6345 27.1283 27.3673 29.0105 29.5185 29.0404C31.4903 29.0404 33.1037 27.427 33.3726 25.3655C33.4025 25.0966 33.4025 24.9174 33.4025 24.8278V24.7979C33.4025 24.7979 33.4025 24.7979 33.4025 24.8278C33.4025 25.007 33.3726 25.1863 33.3726 25.3655C33.3128 26.2021 33.1037 27.8154 32.6257 28.9807C35.3743 28.4429 35.9121 27.0386 35.9121 27.0386C35.9121 27.0386 34.4183 26.1423 34.1195 24.29Z" fill="black"/>
</g>
<defs>
<linearGradient id="paint0_linear" x1="16.6249" y1="4.10817" x2="42.6015" y2="4.59128" gradientUnits="userSpaceOnUse">
<stop stop-color="#3FC8F2"/>
<stop offset="0.1854" stop-color="#75C54E"/>
<stop offset="0.3376" stop-color="#F7F029"/>
<stop offset="0.4974" stop-color="#F7A023"/>
<stop offset="0.6519" stop-color="#EF2328"/>
<stop offset="0.8229" stop-color="#BA59A8"/>
<stop offset="1" stop-color="#435DAE"/>
</linearGradient>
<linearGradient id="paint1_linear" x1="46.8114" y1="71.9764" x2="226.788" y2="71.9764" gradientUnits="userSpaceOnUse">
<stop stop-color="#3FC8F2"/>
<stop offset="0.1854" stop-color="#75C54E"/>
<stop offset="0.3376" stop-color="#F7F029"/>
<stop offset="0.4974" stop-color="#F7A023"/>
<stop offset="0.6519" stop-color="#EF2328"/>
<stop offset="0.8229" stop-color="#BA59A8"/>
<stop offset="1" stop-color="#435DAE"/>
</linearGradient>
<linearGradient id="paint2_linear" x1="46.8116" y1="67.0919" x2="226.788" y2="67.0919" gradientUnits="userSpaceOnUse">
<stop stop-color="#3FC8F2"/>
<stop offset="0.1854" stop-color="#75C54E"/>
<stop offset="0.3376" stop-color="#F7F029"/>
<stop offset="0.4974" stop-color="#F7A023"/>
<stop offset="0.6519" stop-color="#EF2328"/>
<stop offset="0.8229" stop-color="#BA59A8"/>
<stop offset="1" stop-color="#435DAE"/>
</linearGradient>
<linearGradient id="paint3_linear" x1="46.8114" y1="71.9914" x2="226.788" y2="71.9914" gradientUnits="userSpaceOnUse">
<stop stop-color="#3FC8F2"/>
<stop offset="0.1854" stop-color="#75C54E"/>
<stop offset="0.3376" stop-color="#F7F029"/>
<stop offset="0.4974" stop-color="#F7A023"/>
<stop offset="0.6519" stop-color="#EF2328"/>
<stop offset="0.8229" stop-color="#BA59A8"/>
<stop offset="1" stop-color="#435DAE"/>
</linearGradient>
<linearGradient id="paint4_linear" x1="46.8116" y1="67.077" x2="226.788" y2="67.077" gradientUnits="userSpaceOnUse">
<stop stop-color="#3FC8F2"/>
<stop offset="0.1854" stop-color="#75C54E"/>
<stop offset="0.3376" stop-color="#F7F029"/>
<stop offset="0.4974" stop-color="#F7A023"/>
<stop offset="0.6519" stop-color="#EF2328"/>
<stop offset="0.8229" stop-color="#BA59A8"/>
<stop offset="1" stop-color="#435DAE"/>
</linearGradient>
<linearGradient id="paint5_linear" x1="46.8118" y1="71.9764" x2="226.789" y2="71.9764" gradientUnits="userSpaceOnUse">
<stop stop-color="#3FC8F2"/>
<stop offset="0.1854" stop-color="#75C54E"/>
<stop offset="0.3376" stop-color="#F7F029"/>
<stop offset="0.4974" stop-color="#F7A023"/>
<stop offset="0.6519" stop-color="#EF2328"/>
<stop offset="0.8229" stop-color="#BA59A8"/>
<stop offset="1" stop-color="#435DAE"/>
</linearGradient>
<linearGradient id="paint6_linear" x1="46.8113" y1="71.9914" x2="226.788" y2="71.9914" gradientUnits="userSpaceOnUse">
<stop stop-color="#3FC8F2"/>
<stop offset="0.1854" stop-color="#75C54E"/>
<stop offset="0.3376" stop-color="#F7F029"/>
<stop offset="0.4974" stop-color="#F7A023"/>
<stop offset="0.6519" stop-color="#EF2328"/>
<stop offset="0.8229" stop-color="#BA59A8"/>
<stop offset="1" stop-color="#435DAE"/>
</linearGradient>
<linearGradient id="paint7_linear" x1="46.8114" y1="72.0067" x2="226.788" y2="72.0067" gradientUnits="userSpaceOnUse">
<stop stop-color="#3FC8F2"/>
<stop offset="0.1854" stop-color="#75C54E"/>
<stop offset="0.3376" stop-color="#F7F029"/>
<stop offset="0.4974" stop-color="#F7A023"/>
<stop offset="0.6519" stop-color="#EF2328"/>
<stop offset="0.8229" stop-color="#BA59A8"/>
<stop offset="1" stop-color="#435DAE"/>
</linearGradient>
<clipPath id="clip0">
<rect width="216.608" height="85" fill="white"/>
</clipPath>
</defs>
</svg>
