<svg width="597" height="335" viewBox="0 0 597 335" fill="none" xmlns="http://www.w3.org/2000/svg">
<path d="M334.48 334.96H0.019989V0H334.48V85.72H323.52V10.96H10.98V324H323.52V246.75H334.48V334.96Z" fill="white"/>
<path fill-rule="evenodd" clip-rule="evenodd" d="M113.5 111.48H124.5V156.959C129.563 152.595 136 149.98 143 149.98C159.27 149.98 172.5 164.11 172.5 181.48C172.5 198.85 159.27 212.98 143 212.98C136 212.98 129.563 210.365 124.5 206.001V212.48H113.5V181.48V111.48ZM124.5 181.48C124.5 192.78 132.8 201.98 143 201.98C153.2 201.98 161.5 192.78 161.5 181.48C161.5 170.18 153.2 160.98 143 160.98C132.8 160.98 124.5 170.18 124.5 181.48Z" fill="white"/>
<path d="M211.5 152.48H200.5V212.48H211.5V152.48Z" fill="white"/>
<path d="M206.5 144.48C211.194 144.48 215 140.674 215 135.98C215 131.286 211.194 127.48 206.5 127.48C201.806 127.48 198 131.286 198 135.98C198 140.674 201.806 144.48 206.5 144.48Z" fill="white"/>
<path d="M541.5 152.48H530.5V212.48H541.5V152.48Z" fill="white"/>
<path d="M536.5 144.48C541.194 144.48 545 140.674 545 135.98C545 131.286 541.194 127.48 536.5 127.48C531.806 127.48 528 131.286 528 135.98C528 140.674 531.806 144.48 536.5 144.48Z" fill="white"/>
<path d="M268 214.98C261.572 214.98 255.289 213.074 249.944 209.503C244.599 205.932 240.434 200.856 237.974 194.917C235.514 188.979 234.87 182.444 236.124 176.14C237.379 169.835 240.474 164.044 245.019 159.499C249.564 154.954 255.355 151.858 261.66 150.604C267.964 149.35 274.499 149.994 280.437 152.454C286.376 154.914 291.452 159.079 295.023 164.424C298.594 169.769 300.5 176.052 300.5 182.48C300.489 191.096 297.062 199.357 290.969 205.449C284.877 211.542 276.616 214.969 268 214.98ZM268 160.98C263.748 160.98 259.591 162.241 256.055 164.603C252.52 166.966 249.764 170.324 248.137 174.252C246.509 178.181 246.084 182.504 246.913 186.674C247.743 190.845 249.79 194.676 252.797 197.683C255.804 200.69 259.635 202.737 263.806 203.567C267.976 204.396 272.299 203.971 276.228 202.343C280.156 200.716 283.514 197.96 285.877 194.425C288.239 190.889 289.5 186.732 289.5 182.48C289.492 176.78 287.224 171.316 283.194 167.286C279.164 163.256 273.7 160.988 268 160.98Z" fill="white"/>
<path d="M390 214.98C383.572 214.98 377.289 213.074 371.944 209.503C366.599 205.932 362.434 200.856 359.974 194.917C357.514 188.979 356.87 182.444 358.124 176.14C359.379 169.835 362.474 164.044 367.019 159.499C371.564 154.954 377.355 151.858 383.66 150.604C389.964 149.35 396.499 149.994 402.437 152.454C408.376 154.914 413.452 159.079 417.023 164.424C420.594 169.769 422.5 176.052 422.5 182.48C422.489 191.096 419.062 199.357 412.969 205.449C406.877 211.542 398.616 214.969 390 214.98ZM390 160.98C385.748 160.98 381.591 162.241 378.055 164.603C374.52 166.966 371.764 170.324 370.137 174.252C368.509 178.181 368.084 182.504 368.913 186.674C369.743 190.845 371.79 194.676 374.797 197.683C377.804 200.69 381.635 202.737 385.806 203.567C389.976 204.396 394.299 203.971 398.228 202.343C402.156 200.716 405.514 197.96 407.877 194.425C410.239 190.889 411.5 186.732 411.5 182.48C411.492 176.78 409.224 171.316 405.194 167.286C401.164 163.256 395.7 160.988 390 160.98Z" fill="white"/>
<path d="M334.5 111.48H323.5V212.48H334.5V111.48Z" fill="white"/>
<path fill-rule="evenodd" clip-rule="evenodd" d="M455.333 207.424C460.266 210.721 466.067 212.48 472 212.48C478.956 212.48 485.664 210.064 491 205.696V217.81C491 226.48 483.25 233.48 473.72 233.48C462.14 233.48 452.72 224.99 452.52 214.48H441.52C441.71 231.05 456.08 244.48 473.73 244.48C489.32 244.48 502.01 232.48 502.01 217.81V152.98H491V159.264C488.739 157.414 486.209 155.894 483.481 154.764C477.999 152.493 471.967 151.899 466.147 153.056C460.328 154.214 454.982 157.071 450.787 161.267C446.591 165.462 443.734 170.808 442.576 176.627C441.419 182.447 442.013 188.479 444.284 193.96C446.554 199.442 450.399 204.128 455.333 207.424ZM491 182.48C491 186.238 489.886 189.911 487.798 193.036C485.71 196.16 482.743 198.596 479.271 200.034C475.799 201.472 471.979 201.848 468.293 201.115C464.608 200.382 461.222 198.572 458.565 195.915C455.908 193.258 454.098 189.872 453.365 186.187C452.632 182.501 453.008 178.681 454.446 175.209C455.884 171.737 458.32 168.77 461.444 166.682C464.569 164.594 468.242 163.48 472 163.48C477.039 163.48 481.872 165.482 485.435 169.045C488.998 172.608 491 177.441 491 182.48Z" fill="white"/>
<path d="M596.5 149.48H587V127.98H576V149.48H566.5V160.48H576V212.48H587V160.48H596.5V149.48Z" fill="white"/>
</svg>
